<?xml version="1.0" encoding="UTF-8"?>
<!DOCTYPE svg PUBLIC "-//W3C//DTD SVG 1.1//EN" "http://www.w3.org/Graphics/SVG/1.1/DTD/svg11.dtd">
<!-- Creator: CorelDRAW (Versión de evaluación) -->
<svg xmlns="http://www.w3.org/2000/svg" xml:space="preserve" width="221.931mm" height="169.333mm" version="1.1" style="shape-rendering:geometricPrecision; text-rendering:geometricPrecision; image-rendering:optimizeQuality; fill-rule:evenodd; clip-rule:evenodd"
viewBox="0 0 553.35 422.2"
 xmlns:xlink="http://www.w3.org/1999/xlink"
 xmlns:xodm="http://www.corel.com/coreldraw/odm/2003">
 <defs>
  <style type="text/css">
   <![CDATA[
    .fil5 {fill:black}
    .fil4 {fill:white;fill-rule:nonzero}
    .fil0 {fill:url(#id0)}
    .fil2 {fill:url(#id1)}
    .fil1 {fill:url(#id2)}
    .fil3 {fill:url(#id3)}
    .fil6 {fill:url(#id4);fill-rule:nonzero}
   ]]>
  </style>
  <linearGradient id="id0" gradientUnits="userSpaceOnUse" x1="234.38" y1="294.7" x2="234.38" y2="37.15">
   <stop offset="0" style="stop-opacity:1; stop-color:black"/>
   <stop offset="1" style="stop-opacity:1; stop-color:black"/>
  </linearGradient>
  <linearGradient id="id1" gradientUnits="userSpaceOnUse" x1="229.24" y1="186.77" x2="229.24" y2="95.09">
   <stop offset="0" style="stop-opacity:1; stop-color:#00AEF0"/>
   <stop offset="1" style="stop-opacity:1; stop-color:#FEFEFE"/>
  </linearGradient>
  <linearGradient id="id2" gradientUnits="userSpaceOnUse" xlink:href="#id1" x1="252.83" y1="225.1" x2="252.83" y2="33.06">
  </linearGradient>
  <linearGradient id="id3" gradientUnits="userSpaceOnUse" xlink:href="#id1" x1="334.35" y1="129.51" x2="334.35" y2="73.47">
  </linearGradient>
  <linearGradient id="id4" gradientUnits="userSpaceOnUse" xlink:href="#id1" x1="22.54" y1="411.15" x2="22.54" y2="377.69">
  </linearGradient>
 </defs>
 <g id="Capa_x0020_1">
  <metadata id="CorelCorpID_0Corel-Layer"/>
  <path class="fil0" d="M408.58 106.13c2.33,1.58 4.22,4.01 5.59,7.35 0.96,2.36 0.17,5 -1.93,6.44 -0.44,0.3 -0.91,0.53 -1.4,0.69 0.49,-0.02 0.92,-0.05 1.25,-0.06 5.95,-0.24 11.89,-0.52 17.84,-0.41 10.45,0.2 27.88,1.51 30.6,14.27 0.52,2.44 -0.65,4.84 -2.89,5.93 -2.24,1.09 -4.86,0.53 -6.45,-1.39 -3.49,-4.2 -13.46,-2.75 -18.06,-1.98 -5.43,0.9 -10.84,2.24 -16.18,3.58 -6.01,1.51 -12.01,3.08 -18.07,4.41 -8.66,1.91 -16.55,2.71 -25.34,1.3 -3.4,-0.54 -6.75,-1.35 -10.1,-2.13 -3.89,-0.91 -7.77,-1.74 -11.72,-2.38 -4.25,-0.69 -8.5,-1.2 -12.78,-0.51 -1.79,0.29 -3.56,0.73 -5.32,1.15 -2.61,0.63 -5.21,1.21 -7.86,1.7 -5.69,1.04 -12.52,1.35 -17.66,-1.76 -4.25,-2.57 -6.43,-6.99 -6.04,-11.89 0.11,-1.41 0.44,-2.8 0.94,-4.14 -0.9,0.45 -1.79,0.9 -2.68,1.31 -3.11,1.41 -6.32,3.29 -9.35,4.9 -4.9,2.61 -9.83,5.18 -14.87,7.53 -4.9,2.29 -10.22,4.58 -15.46,5.93 -4.65,1.2 -10.5,1.94 -14.37,-1.6 -1.75,-1.59 -2.24,-4.03 -1.26,-6.18 0.99,-2.15 3.16,-3.36 5.5,-3.08 9.64,1.16 25.92,-19.63 31.13,-26.27 6.06,-7.72 11.81,-15.67 17.84,-23.41 4.5,-5.78 10.26,-13.11 16.15,-17.46 8.91,-6.57 20.4,-9.42 31.3,-7.17 3.95,0.82 8.1,2.43 11.59,4.84 -19.88,-22.78 -49.06,-36.74 -80.77,-36.74 -55.87,0 -102.01,42.88 -106.7,97.86 2.34,-3.3 4.69,-6.6 7.07,-9.87 4,-5.5 8.1,-10.98 12.48,-16.18 3.48,-4.13 7.35,-8.4 11.6,-11.76 12.87,-10.17 29.62,-14.79 45.77,-11.23 12.2,2.69 25.27,10.85 27.86,23.95 0.48,2.43 -0.7,4.79 -2.93,5.86 -2.23,1.07 -4.82,0.51 -6.41,-1.38 -2.16,-2.57 -7.02,-2.47 -9.99,-1.98 -5.87,0.96 -11.69,4.12 -16.04,8.12 -14,12.89 -11.44,30.77 -2.62,45.92 5.59,9.6 13.08,16.93 24.74,16.78 10.2,-0.13 21.43,-5.75 30.26,-10.53 5.2,-2.82 10.3,-5.81 15.52,-8.58 4.67,-2.49 9.7,-4.97 14.81,-6.43 11.98,-3.41 20.87,0.59 25.41,12.5 0.91,2.39 0.04,5.02 -2.11,6.4 -2.15,1.38 -4.9,1.08 -6.7,-0.74 -2.26,-2.29 -6.35,-1.11 -8.48,0.76 -2.95,2.59 -1.38,4.99 1.25,7.07 2.64,0.73 11.94,0.22 14.53,0.11 9.1,-0.39 18.17,-0.88 27.29,-0.73 15.13,0.25 41.12,2.04 44.85,20.74 0.49,2.46 -0.74,4.87 -3.02,5.91 -2.28,1.04 -4.91,0.4 -6.45,-1.58 -2.39,-3.08 -6.1,-4.65 -10.26,-5.33 0.16,1.06 -0.02,2.16 -0.55,3.19 -23.23,45.52 -69.94,74.24 -121.19,74.24 -52.91,0 -100.85,-30.62 -123.21,-78.39 -0.11,-0.25 -0.21,-0.5 -0.29,-0.75 -4.96,2.76 -9.97,5.46 -15.05,7.99 -7.29,3.64 -15.31,7.36 -23.17,9.53 -6.17,1.7 -14.48,3.03 -19.56,-1.93 -1.67,-1.64 -2.1,-4.05 -1.07,-6.16 1.02,-2.11 3.18,-3.27 5.5,-2.97 7.78,1 16.94,-6.42 22.23,-11.3 8.48,-7.82 16.27,-17.47 23.37,-26.93 -1.67,-0.72 -2.84,-2.21 -3.13,-4.08 -1.08,-6.95 -1.62,-13.97 -1.62,-21 0,-75.1 60.89,-135.99 135.99,-135.99 61.91,0 116.08,41.89 131.62,101.7 0.41,1.59 0.12,3.15 -0.81,4.44zm-26.33 4.16c-0.47,-0.57 -0.82,-1.26 -1.03,-2.03 -3.17,-11.86 -8.27,-22.8 -14.9,-32.54 0.13,0.42 0.24,0.85 0.33,1.28 0.51,2.4 -0.62,4.76 -2.81,5.88 -2.19,1.11 -4.76,0.64 -6.4,-1.19 -0.88,-0.98 -3.87,-0.8 -5,-0.63 -3.47,0.53 -6.98,2.28 -9.63,4.55 -8.26,7.1 -6.58,16.79 -1.31,25.24 3.47,5.57 7.87,9.44 14.66,9.36 6.35,-0.07 13.51,-3.44 19.08,-6.26 2.24,-1.13 4.6,-2.42 7.01,-3.68zm-202.87 68.57c0.3,0.36 0.55,0.77 0.75,1.23 0.92,2.03 1.9,4.02 2.94,5.99 0.88,-4.55 3.21,-8.93 6.5,-12.13 -3.57,1.23 -6.87,3.12 -10.2,4.91zm18.89 28.9c20.25,22.43 48.96,35.32 79.49,35.32 34.44,0 66.48,-16.43 86.63,-44.12 -3.21,0.81 -6.41,1.67 -9.58,2.52 -9.16,2.46 -18.3,5.02 -27.53,7.2 -12.92,3.05 -24.64,4.35 -37.79,2.1 -5.14,-0.88 -10.2,-2.19 -15.26,-3.45 -6,-1.49 -11.96,-2.87 -18.06,-3.94 -6.77,-1.18 -13.48,-2.02 -20.3,-0.84 -2.79,0.48 -5.56,1.22 -8.31,1.93 -3.94,1.01 -7.87,1.96 -11.87,2.74 -5.42,1.06 -11.7,1.67 -17.42,0.53zm204.43 -87.16c1.21,0.2 3.32,0.18 5.31,0.12 -0.9,-0.21 -1.76,-0.66 -2.48,-1.34 -0.69,-0.65 -2.7,-0.05 -3.43,0.66 0.16,0.19 0.38,0.39 0.6,0.57zm96.33 205.6c2.6,-2.25 5.77,-3.35 9.22,-3.35 3.61,0 6.91,1.2 9.56,3.65 2.82,2.61 4.14,6.08 4.14,9.9 0,3.76 -1.33,7.15 -4.04,9.77 -2.65,2.57 -5.98,3.85 -9.66,3.85 -3.68,0 -7.01,-1.29 -9.66,-3.85 -0.01,-0.01 -0.01,-0.01 -0.02,-0.02 -0.83,1.89 -2.72,3.21 -4.9,3.21l-13.91 0c-2.95,0 -5.35,-2.4 -5.35,-5.35l0 -20.43c0,-0.56 -0.07,-2.18 -0.39,-2.66 -0.1,-0.11 -0.64,-0.12 -0.78,-0.12 -0.53,0 -1.02,0.09 -1.49,0.35 -0.29,0.16 -0.47,0.44 -0.61,0.72 -0.39,0.78 -0.46,2.11 -0.46,2.95l0 19.19c0,2.95 -2.4,5.35 -5.35,5.35l-13.91 0c-1.82,0 -3.43,-0.91 -4.39,-2.3 -0.97,1.39 -2.58,2.3 -4.39,2.3l-12.96 0c-1.11,0 -2.14,-0.34 -3,-0.92 -2.73,1.15 -5.73,1.58 -8.72,1.58 -3.57,0 -7.17,-0.57 -10.41,-2.15 -2.71,-1.32 -5.02,-3.19 -6.73,-5.64 -2.43,2.56 -5.36,4.48 -8.66,5.78 -3.76,1.48 -7.83,2.02 -11.85,2.02 -5.1,0 -10.13,-0.93 -14.7,-3.26 -3.96,-2.02 -7.29,-4.85 -9.76,-8.52l0 5.77c0,2.95 -2.4,5.35 -5.35,5.35l-13.84 0c-2.94,0 -5.35,-2.4 -5.35,-5.34l-0 -1.5c-2.28,1.98 -4.84,3.6 -7.64,4.87 -4.7,2.12 -9.77,3 -14.91,3 -4.49,0 -8.92,-0.7 -13.12,-2.28 -4,-1.51 -7.64,-3.71 -10.74,-6.66 -3.05,-2.9 -5.43,-6.33 -7.11,-10.2 -1.78,-4.08 -2.57,-8.43 -2.57,-12.87 0,-4.44 0.79,-8.79 2.57,-12.87 1.68,-3.86 4.06,-7.29 7.11,-10.2 3.1,-2.95 6.74,-5.16 10.74,-6.66 4.21,-1.58 8.64,-2.28 13.12,-2.28 5.12,0 10.18,0.86 14.88,2.95 2.8,1.24 5.34,2.85 7.61,4.82l-0.01 -4.46c-0,-1.47 0.52,-2.74 1.56,-3.79 1.04,-1.04 2.31,-1.57 3.79,-1.57l13.91 0c2.95,0 5.35,2.4 5.35,5.35l0 20.14c2.36,-3.54 5.51,-6.31 9.31,-8.3 4.26,-2.22 8.89,-3.21 13.68,-3.21 4.55,0 8.96,0.92 13.06,2.93 3,1.48 5.58,3.48 7.69,5.97 0.27,-1.36 1.08,-2.61 2.33,-3.42 2.96,-1.93 6.28,-3.23 9.69,-4.11 3.51,-0.9 7.11,-1.38 10.74,-1.38 6.56,0 13.25,1.37 18.4,5.67 2.46,2.05 4.18,4.55 5.32,7.3l0 -6.97c0,-2.95 2.4,-5.35 5.35,-5.35l13.26 0c1.23,0 2.36,0.42 3.27,1.12 2.95,-1.22 6.09,-1.78 9.33,-1.78 3.74,0 7.38,0.75 10.74,2.43 3.53,1.77 6.26,4.49 8.18,7.93 2.14,3.84 2.84,8.29 2.84,12.63l0 4.88zm-167.76 -18.01l-6.1 5.52c-1.11,1.01 -2.44,1.47 -3.94,1.37 -1.5,-0.1 -2.75,-0.73 -3.73,-1.87 -1.08,-1.27 -2.35,-2.41 -3.84,-3.18 -1.3,-0.67 -2.71,-0.94 -4.17,-0.94 -1.31,0 -2.62,0.18 -3.85,0.66 -0.99,0.38 -1.85,0.93 -2.59,1.69 -0.8,0.83 -1.38,1.82 -1.8,2.89 -0.51,1.29 -0.69,2.67 -0.69,4.05 0,1.38 0.19,2.76 0.69,4.05 0.42,1.07 1,2.06 1.8,2.89 0.73,0.76 1.6,1.31 2.59,1.69 1.23,0.48 2.53,0.66 3.85,0.66 1.46,0 2.86,-0.26 4.17,-0.94 1.49,-0.77 2.76,-1.91 3.84,-3.18 0.97,-1.14 2.23,-1.78 3.73,-1.87 1.5,-0.1 2.83,0.36 3.94,1.37l6.13 5.54 -0.03 -20.41zm-119.26 -4.57c2.89,-1.83 6.11,-3.09 9.42,-3.93 3.51,-0.9 7.11,-1.38 10.74,-1.38 6.56,0 13.25,1.37 18.4,5.67 5.4,4.51 7.23,11.17 7.23,17.99l0 22.04c0,2.95 -2.4,5.35 -5.35,5.35l-12.96 0c-1.11,0 -2.14,-0.34 -3,-0.92 -2.73,1.15 -5.73,1.58 -8.72,1.58 -3.57,0 -7.17,-0.57 -10.41,-2.15 -1.19,-0.58 -2.3,-1.27 -3.32,-2.06 -0.33,0.4 -0.72,0.75 -1.17,1.05 -1.87,1.24 -3.98,2.03 -6.17,2.5 -2.13,0.46 -4.29,0.67 -6.47,0.67 -5.6,0 -11.14,-1.32 -15.42,-5.12 -2.06,-1.83 -3.51,-4.02 -4.47,-6.41 -0.49,1.04 -1.1,2.04 -1.82,2.98 -2.27,2.98 -5.41,5.02 -8.84,6.4 -4.02,1.62 -8.49,2.15 -12.8,2.15 -3.75,0 -7.48,-0.43 -11.12,-1.32 -3.16,-0.77 -6.41,-1.86 -9.21,-3.54 -1.21,-0.72 -2.03,-1.84 -2.39,-3.1 -1.89,1.89 -4.07,3.45 -6.52,4.7 -4.36,2.23 -9.11,3.2 -13.98,3.26 -0.04,0 -0.08,0 -0.12,0 -4.88,-0.05 -9.66,-1.02 -14.01,-3.27 -3.04,-1.57 -5.67,-3.64 -7.83,-6.2 -2.75,2.9 -6.02,5.17 -9.7,6.84 -4.7,2.12 -9.77,3 -14.91,3 -4.49,0 -8.92,-0.7 -13.12,-2.28 -4,-1.51 -7.64,-3.71 -10.74,-6.66 -3.05,-2.9 -5.43,-6.33 -7.11,-10.2 -1.78,-4.08 -2.57,-8.43 -2.57,-12.87 0,-4.44 0.79,-8.79 2.57,-12.87 1.68,-3.86 4.06,-7.29 7.11,-10.2 3.1,-2.95 6.74,-5.16 10.74,-6.66 4.21,-1.58 8.64,-2.28 13.12,-2.28 5.12,0 10.18,0.86 14.88,2.95 4.47,1.99 8.3,4.9 11.35,8.73 1.76,2.21 1.5,5.4 -0.59,7.3l-9.23 8.35c-1.11,1.01 -2.44,1.47 -3.94,1.37 -1.5,-0.1 -2.75,-0.73 -3.73,-1.87 -1.08,-1.27 -2.35,-2.41 -3.84,-3.18 -1.3,-0.67 -2.71,-0.94 -4.17,-0.94 -1.31,0 -2.62,0.18 -3.85,0.66 -0.99,0.38 -1.85,0.93 -2.59,1.69 -0.8,0.83 -1.38,1.82 -1.8,2.89 -0.5,1.29 -0.69,2.67 -0.69,4.05 0,1.38 0.19,2.76 0.69,4.05 0.42,1.07 1,2.06 1.8,2.89 0.73,0.76 1.6,1.31 2.59,1.69 1.23,0.48 2.53,0.66 3.85,0.66 1.46,0 2.86,-0.26 4.17,-0.94 1.49,-0.77 2.76,-1.91 3.84,-3.18 0.97,-1.14 2.23,-1.78 3.73,-1.87 1.5,-0.1 2.83,0.36 3.94,1.37l2.36 2.13c-0.01,-0.34 -0.02,-0.68 -0.02,-1.02 0,-4.82 1.14,-9.42 3.72,-13.51 2.48,-3.92 5.88,-6.95 9.99,-9.1 4.34,-2.27 9.09,-3.24 13.97,-3.24 4.93,0 9.74,0.96 14.14,3.24 3.58,1.85 6.61,4.38 8.96,7.58 0.41,-0.79 0.9,-1.55 1.45,-2.28 2.26,-3 5.39,-5.06 8.85,-6.44 3.95,-1.57 8.3,-2.1 12.52,-2.1 3.19,0 6.36,0.33 9.49,0.94 2.24,0.44 4.47,1.08 6.57,1.99 0.82,-0.52 1.79,-0.81 2.83,-0.81l0.44 0 0 -4.98c0,-2.95 2.4,-5.35 5.35,-5.35l13.91 0c2.95,0 5.35,2.4 5.35,5.35l0 4.98 3.73 0c2.18,0 4.06,1.31 4.89,3.18zm0.46 12.27l0 0.29c0,2.95 -2.4,5.35 -5.35,5.35l-3.73 0 0 6.75c1.41,-0.99 3.05,-1.24 4.69,-0.72 0.07,0.02 0.14,0.04 0.2,0.07 0.46,-1.62 1.18,-3.16 2.18,-4.59 1.03,-1.48 2.29,-2.7 3.72,-3.7l-1.71 -3.45zm-33.86 5.64c0.06,0.07 0.11,0.14 0.17,0.22l0 -0.22 -0.17 0zm-61.94 2.63c-0.03,-0.86 -0.16,-1.91 -0.55,-2.67 -0.23,-0.44 -0.52,-0.81 -0.94,-1.07 -0.49,-0.29 -1.09,-0.36 -1.64,-0.36 -0.52,0 -0.98,0.1 -1.43,0.36 -0.45,0.27 -0.77,0.67 -1.02,1.13 -0.4,0.74 -0.53,1.76 -0.56,2.6 0.03,0.88 0.18,1.82 0.59,2.61 0.25,0.48 0.58,0.93 1.05,1.21 0.39,0.24 0.81,0.3 1.27,0.29 0.06,-0 0.11,-0 0.17,-0 0.55,0 1.1,-0.08 1.57,-0.36 0.42,-0.24 0.69,-0.65 0.91,-1.07 0.41,-0.8 0.56,-1.77 0.59,-2.67z"/>
  <path class="fil1" d="M277.77 18.52c54.1,0 99.65,36.57 113.29,86.34 -1.55,0.6 -3.11,1.29 -4.66,2.02 -12.83,-47.99 -56.6,-83.34 -108.64,-83.34 -61.03,0 -110.7,48.62 -112.4,109.23 -1.67,2.37 -3.33,4.75 -5,7.12 -0.04,-1.3 -0.07,-2.6 -0.07,-3.9 0,-64.88 52.59,-117.47 117.47,-117.47zm100.35 178.57c-20.62,33.8 -57.85,56.37 -100.35,56.37 -47.5,0 -88.41,-28.2 -106.92,-68.76 1.48,-0.84 2.95,-1.65 4.42,-2.4 2.02,4.46 4.32,8.75 6.88,12.88 1.07,4.03 3.44,7.57 7.07,10.12 20.58,26.26 52.6,43.14 88.55,43.14 38.95,0 73.28,-19.81 93.45,-49.9 2.29,-0.52 4.59,-1.01 6.89,-1.45zm-100.35 -191.74c60.77,0 111.84,41.49 126.45,97.69 -1.82,-0.37 -3.77,-0.42 -5.83,-0.16 -14.52,-52.99 -63.01,-91.94 -120.61,-91.94 -69.07,0 -125.05,55.99 -125.05,125.05 0,4.6 0.26,9.15 0.74,13.63 -1.17,1.63 -2.35,3.25 -3.53,4.86 -0.41,0.56 -0.83,1.12 -1.24,1.69 -1.02,-6.58 -1.55,-13.32 -1.55,-20.18 0,-72.15 58.49,-130.64 130.64,-130.64zm116.43 189.95c-21.61,42.34 -65.63,71.33 -116.43,71.33 -52.37,0 -97.54,-30.82 -118.37,-75.31 1,-0.57 2,-1.14 3,-1.71 0.62,-0.35 1.24,-0.71 1.87,-1.08 19.85,42.81 63.21,72.51 113.5,72.51 47.47,0 88.77,-26.45 109.95,-65.42 2.1,-0.21 4.3,-0.35 6.48,-0.32z"/>
  <g id="_1682583869024">
   <path class="fil2" d="M100.23 204.6c10.57,10.33 62.45,-23.5 73.67,-28.93 7.42,-3.59 25.21,-16.04 30.96,-0.59 -16.51,-6.93 -31.51,35.01 9.8,26.9 18.77,-3.68 21.2,-7.55 42.43,-3.85 28.8,5.03 37.02,12.87 68.96,5.34 36.77,-8.67 74.53,-24.14 87.93,-6.88 -5.38,-26.96 -77.4,-11.39 -84.33,-16.66 -14.82,-11.27 5.18,-24.98 13.94,-16.1 -15.36,-40.32 -76.36,55.48 -110.36,-2.95 -27.87,-47.9 25.06,-72.84 37.37,-58.19 -3.68,-18.57 -38.02,-30.96 -65.07,-9.57 -26.63,21.05 -72.51,115.7 -105.3,111.47z"/>
   <path class="fil3" d="M249.89 140.42c6.92,6.32 40.89,-14.37 48.23,-17.69 4.86,-2.2 16.5,-9.8 20.27,-0.36 -10.81,-4.24 -20.63,21.4 6.42,16.45 12.29,-2.25 13.88,-4.62 27.78,-2.35 18.85,3.07 24.23,7.87 45.15,3.27 24.07,-5.3 48.79,-14.76 57.56,-4.21 -3.52,-16.48 -50.67,-6.96 -55.21,-10.18 -9.7,-6.89 3.39,-15.27 9.13,-9.84 -10.05,-24.65 -49.99,33.92 -72.25,-1.8 -18.25,-29.28 16.41,-44.53 24.46,-35.57 -2.41,-11.35 -24.89,-18.92 -42.6,-5.85 -17.43,12.87 -47.47,70.73 -68.94,68.14z"/>
  </g>
  <path class="fil4" d="M67.11 345.05c-4.05,0 -7.8,-0.65 -11.24,-1.94 -3.44,-1.29 -6.42,-3.14 -8.93,-5.53 -2.51,-2.39 -4.48,-5.21 -5.9,-8.46 -1.42,-3.25 -2.12,-6.82 -2.12,-10.73 0,-3.91 0.71,-7.48 2.12,-10.73 1.42,-3.25 3.38,-6.07 5.9,-8.46 2.51,-2.39 5.49,-4.24 8.93,-5.53 3.44,-1.29 7.19,-1.94 11.24,-1.94 4.74,0 8.97,0.83 12.71,2.49 3.74,1.66 6.85,4.05 9.34,7.18l-9.23 8.35c-1.66,-1.95 -3.48,-3.44 -5.46,-4.47 -1.98,-1.03 -4.19,-1.54 -6.63,-1.54 -2.1,0 -4.03,0.34 -5.79,1.03 -1.76,0.68 -3.26,1.67 -4.5,2.97 -1.24,1.29 -2.22,2.84 -2.93,4.65 -0.71,1.81 -1.06,3.81 -1.06,6.01 0,2.2 0.35,4.2 1.06,6.01 0.71,1.81 1.68,3.36 2.93,4.65 1.25,1.29 2.75,2.28 4.5,2.97 1.76,0.68 3.69,1.03 5.79,1.03 2.44,0 4.65,-0.51 6.63,-1.54 1.98,-1.03 3.8,-2.51 5.46,-4.47l9.23 8.35c-2.49,3.08 -5.6,5.46 -9.34,7.14 -3.73,1.68 -7.97,2.53 -12.71,2.53zm46.5 -0.37c-4.39,-0.05 -8.26,-0.94 -11.61,-2.67 -3.34,-1.73 -5.98,-4.15 -7.91,-7.25 -1.93,-3.1 -2.89,-6.63 -2.89,-10.58 0,-4.05 0.96,-7.6 2.89,-10.66 1.93,-3.05 4.58,-5.46 7.95,-7.21 3.37,-1.76 7.2,-2.64 11.5,-2.64 4.39,0 8.29,0.88 11.68,2.64 3.39,1.76 6.04,4.17 7.95,7.25 1.9,3.08 2.86,6.62 2.86,10.62 0,3.95 -0.95,7.48 -2.86,10.58 -1.9,3.1 -4.55,5.52 -7.95,7.25 -3.39,1.73 -7.26,2.62 -11.61,2.67zm0 -11.06c1.61,0 3.04,-0.37 4.28,-1.1 1.24,-0.73 2.23,-1.82 2.97,-3.26 0.73,-1.44 1.12,-3.14 1.17,-5.09 -0.05,-2.05 -0.44,-3.77 -1.17,-5.16 -0.73,-1.39 -1.72,-2.45 -2.97,-3.19 -1.25,-0.73 -2.7,-1.1 -4.36,-1.1 -1.51,0 -2.89,0.37 -4.14,1.1 -1.25,0.73 -2.25,1.79 -3,3.19 -0.76,1.39 -1.16,3.11 -1.21,5.16 0.05,1.95 0.45,3.65 1.21,5.09 0.76,1.44 1.76,2.54 3,3.3 1.24,0.76 2.65,1.11 4.21,1.06zm43.28 11.06c-3.37,0 -6.65,-0.39 -9.85,-1.17 -3.2,-0.78 -5.77,-1.76 -7.73,-2.93l4.17 -9.52c1.86,1.12 4.03,2.01 6.52,2.67 2.49,0.66 4.93,0.99 7.32,0.99 2.34,0 3.97,-0.24 4.87,-0.73 0.9,-0.49 1.35,-1.15 1.35,-1.98 0,-0.78 -0.43,-1.35 -1.28,-1.72 -0.85,-0.37 -1.98,-0.65 -3.37,-0.84 -1.39,-0.2 -2.92,-0.42 -4.58,-0.66 -1.66,-0.24 -3.33,-0.57 -5.02,-0.99 -1.68,-0.41 -3.22,-1.05 -4.61,-1.9 -1.39,-0.85 -2.5,-2.01 -3.33,-3.48 -0.83,-1.46 -1.24,-3.32 -1.24,-5.57 0,-2.54 0.74,-4.8 2.23,-6.77 1.49,-1.98 3.67,-3.54 6.55,-4.69 2.88,-1.15 6.4,-1.72 10.55,-1.72 2.78,0 5.6,0.28 8.46,0.84 2.86,0.56 5.26,1.4 7.21,2.53l-4.17 9.45c-1.95,-1.12 -3.91,-1.89 -5.86,-2.31 -1.95,-0.41 -3.81,-0.62 -5.57,-0.62 -2.34,0 -3.99,0.27 -4.94,0.81 -0.95,0.54 -1.43,1.2 -1.43,1.98 0,0.78 0.41,1.38 1.24,1.79 0.83,0.41 1.94,0.73 3.33,0.95 1.39,0.22 2.92,0.44 4.58,0.66 1.66,0.22 3.33,0.55 5.02,0.99 1.68,0.44 3.22,1.09 4.61,1.94 1.39,0.85 2.5,2 3.33,3.44 0.83,1.44 1.24,3.28 1.24,5.53 0,2.44 -0.74,4.64 -2.23,6.59 -1.49,1.95 -3.69,3.52 -6.59,4.69 -2.9,1.17 -6.51,1.76 -10.8,1.76zm43.35 0c-5.08,0 -9.03,-1.26 -11.86,-3.77 -2.83,-2.51 -4.25,-6.31 -4.25,-11.39l0 -34.05 13.91 0 0 33.91c0,1.42 0.39,2.53 1.17,3.33 0.78,0.81 1.78,1.21 3,1.21 1.66,0 3.08,-0.41 4.25,-1.25l3.44 9.74c-1.17,0.78 -2.61,1.35 -4.32,1.72 -1.71,0.37 -3.49,0.55 -5.35,0.55zm-21.9 -28.49l0 -10.4 28.78 0 0 10.4 -28.78 0zm61.15 27.83l0 -7.4 -0.95 -1.83 0 -13.62c0,-2.2 -0.67,-3.89 -2.01,-5.09 -1.34,-1.2 -3.48,-1.79 -6.41,-1.79 -1.9,0 -3.83,0.31 -5.79,0.92 -1.95,0.61 -3.61,1.45 -4.98,2.53l-4.69 -9.45c2.25,-1.46 4.94,-2.6 8.09,-3.41 3.15,-0.81 6.29,-1.21 9.41,-1.21 6.44,0 11.44,1.48 14.98,4.43 3.54,2.95 5.31,7.58 5.31,13.88l0 22.04 -12.96 0zm-11.72 0.66c-3.17,0 -5.86,-0.54 -8.06,-1.61 -2.2,-1.07 -3.87,-2.54 -5.02,-4.39 -1.15,-1.86 -1.72,-3.93 -1.72,-6.22 0,-2.44 0.62,-4.55 1.87,-6.33 1.24,-1.78 3.16,-3.15 5.75,-4.1 2.59,-0.95 5.93,-1.43 10.03,-1.43l9.37 0 0 7.25 -7.47 0c-2.25,0 -3.82,0.37 -4.72,1.1 -0.9,0.73 -1.35,1.71 -1.35,2.93 0,1.22 0.46,2.2 1.39,2.93 0.93,0.73 2.2,1.1 3.81,1.1 1.51,0 2.89,-0.38 4.14,-1.13 1.24,-0.76 2.16,-1.92 2.75,-3.48l1.9 5.13c-0.73,2.73 -2.16,4.8 -4.28,6.19 -2.12,1.39 -4.92,2.09 -8.39,2.09zm81 0.37c-4.05,0 -7.8,-0.65 -11.24,-1.94 -3.44,-1.29 -6.42,-3.14 -8.93,-5.53 -2.51,-2.39 -4.48,-5.21 -5.9,-8.46 -1.42,-3.25 -2.12,-6.82 -2.12,-10.73 0,-3.91 0.71,-7.48 2.12,-10.73 1.42,-3.25 3.38,-6.07 5.9,-8.46 2.51,-2.39 5.49,-4.24 8.93,-5.53 3.44,-1.29 7.19,-1.94 11.24,-1.94 4.74,0 8.97,0.83 12.71,2.49 3.73,1.66 6.85,4.05 9.34,7.18l-9.23 8.35c-1.66,-1.95 -3.48,-3.44 -5.46,-4.47 -1.98,-1.03 -4.19,-1.54 -6.63,-1.54 -2.1,0 -4.03,0.34 -5.79,1.03 -1.76,0.68 -3.26,1.67 -4.5,2.97 -1.24,1.29 -2.22,2.84 -2.93,4.65 -0.71,1.81 -1.06,3.81 -1.06,6.01 0,2.2 0.35,4.2 1.06,6.01 0.71,1.81 1.68,3.36 2.93,4.65 1.25,1.29 2.75,2.28 4.5,2.97 1.76,0.68 3.69,1.03 5.79,1.03 2.44,0 4.65,-0.51 6.63,-1.54 1.98,-1.03 3.8,-2.51 5.46,-4.47l9.23 8.35c-2.49,3.08 -5.6,5.46 -9.34,7.14 -3.74,1.68 -7.97,2.53 -12.71,2.53zm27.9 -1.03l-0.07 -54.34 13.91 0 0 54.34 -13.84 0zm43.65 0.66c-4.69,0 -8.78,-0.89 -12.27,-2.67 -3.49,-1.78 -6.2,-4.22 -8.13,-7.32 -1.93,-3.1 -2.89,-6.63 -2.89,-10.58 0,-3.95 0.94,-7.48 2.82,-10.58 1.88,-3.1 4.48,-5.52 7.8,-7.25 3.32,-1.73 7.05,-2.6 11.2,-2.6 3.91,0 7.47,0.79 10.69,2.38 3.22,1.59 5.79,3.92 7.69,6.99 1.9,3.08 2.86,6.81 2.86,11.2 0,0.49 -0.02,1.05 -0.07,1.68 -0.05,0.63 -0.1,1.22 -0.15,1.76l-31.42 0 0 -7.32 24.02 0 -5.27 2.05c0.05,-1.81 -0.28,-3.37 -0.99,-4.69 -0.71,-1.32 -1.68,-2.34 -2.93,-3.08 -1.24,-0.73 -2.7,-1.1 -4.36,-1.1 -1.66,0 -3.11,0.37 -4.36,1.1 -1.24,0.73 -2.21,1.77 -2.89,3.11 -0.68,1.34 -1.03,2.92 -1.03,4.72l0 2.12c0,1.95 0.4,3.64 1.21,5.05 0.81,1.42 1.96,2.5 3.48,3.26 1.51,0.76 3.32,1.13 5.42,1.13 1.95,0 3.63,-0.28 5.02,-0.84 1.39,-0.56 2.77,-1.43 4.14,-2.6l7.32 7.62c-1.9,2.1 -4.25,3.7 -7.03,4.8 -2.78,1.1 -6.08,1.65 -9.89,1.65zm49.36 -0.66l0 -7.4 -0.95 -1.83 0 -13.62c0,-2.2 -0.67,-3.89 -2.01,-5.09 -1.34,-1.2 -3.48,-1.79 -6.41,-1.79 -1.9,0 -3.83,0.31 -5.79,0.92 -1.95,0.61 -3.61,1.45 -4.98,2.53l-4.69 -9.45c2.25,-1.46 4.94,-2.6 8.09,-3.41 3.15,-0.81 6.29,-1.21 9.41,-1.21 6.44,0 11.44,1.48 14.98,4.43 3.54,2.95 5.31,7.58 5.31,13.88l0 22.04 -12.96 0zm-11.72 0.66c-3.17,0 -5.86,-0.54 -8.06,-1.61 -2.2,-1.07 -3.87,-2.54 -5.02,-4.39 -1.15,-1.86 -1.72,-3.93 -1.72,-6.22 0,-2.44 0.62,-4.55 1.87,-6.33 1.24,-1.78 3.16,-3.15 5.75,-4.1 2.59,-0.95 5.93,-1.43 10.03,-1.43l9.37 0 0 7.25 -7.47 0c-2.25,0 -3.82,0.37 -4.72,1.1 -0.9,0.73 -1.35,1.71 -1.35,2.93 0,1.22 0.46,2.2 1.39,2.93 0.93,0.73 2.2,1.1 3.81,1.1 1.51,0 2.89,-0.38 4.14,-1.13 1.24,-0.76 2.16,-1.92 2.75,-3.48l1.9 5.13c-0.73,2.73 -2.16,4.8 -4.28,6.19 -2.12,1.39 -4.92,2.09 -8.39,2.09zm59.32 -41.01c3.08,0 5.86,0.62 8.35,1.87 2.49,1.24 4.45,3.16 5.89,5.75 1.44,2.59 2.16,5.93 2.16,10.03l0 22.7 -13.91 0 0 -20.43c0,-2.83 -0.57,-4.89 -1.72,-6.19 -1.15,-1.29 -2.75,-1.94 -4.8,-1.94 -1.46,0 -2.81,0.33 -4.03,0.99 -1.22,0.66 -2.17,1.67 -2.86,3.04 -0.68,1.37 -1.03,3.15 -1.03,5.35l0 19.19 -13.91 0 0 -39.69 13.26 0 0 11.28 -2.56 -3.3c1.51,-2.88 3.59,-5.04 6.22,-6.48 2.64,-1.44 5.61,-2.16 8.93,-2.16zm30.98 41.01c-2.34,0 -4.32,-0.78 -5.93,-2.34 -1.61,-1.56 -2.42,-3.54 -2.42,-5.93 0,-2.49 0.81,-4.48 2.42,-5.97 1.61,-1.49 3.59,-2.23 5.93,-2.23 2.34,0 4.32,0.74 5.93,2.23 1.61,1.49 2.42,3.48 2.42,5.97 0,2.39 -0.81,4.37 -2.42,5.93 -1.61,1.56 -3.59,2.34 -5.93,2.34z"/>
  <g id="_1682583871472">
   <path class="fil5" d="M26.58 369.04c14.66,0 26.58,11.92 26.58,26.58 0,14.66 -11.92,26.58 -26.58,26.58 -14.66,0 -26.58,-11.92 -26.58,-26.58 0,-14.66 11.92,-26.58 26.58,-26.58z"/>
   <path class="fil5" d="M26.58 370.91c13.63,0 24.71,11.08 24.71,24.71 0,13.63 -11.08,24.71 -24.71,24.71 -13.63,0 -24.71,-11.09 -24.71,-24.71 0,-13.63 11.08,-24.71 24.71,-24.71z"/>
   <path class="fil6" d="M33.17 414.1c2.53,-3.79 4.18,-9.81 4.4,-16.91l8.56 0c-0.62,7.82 -5.84,14.36 -12.96,16.91zm-26.15 -16.91l8.56 0c0.21,7.1 1.86,13.12 4.4,16.91 -7.11,-2.55 -12.34,-9.09 -12.96,-16.91zm12.96 -20.05c-2.53,3.79 -4.18,9.81 -4.4,16.91l-8.56 0c0.62,-7.82 5.85,-14.36 12.96,-16.91zm-1.25 16.91c0.36,-10.71 4.29,-18.05 7.85,-18.05 3.55,0 7.49,7.34 7.84,18.05l-15.69 0zm7.85 21.19c-3.55,0 -7.49,-7.34 -7.85,-18.05l15.69 0c-0.35,10.72 -4.29,18.05 -7.84,18.05zm19.55 -21.19l-8.56 0c-0.21,-7.1 -1.86,-13.12 -4.4,-16.91 7.11,2.55 12.34,9.09 12.96,16.91zm-19.55 -21.19c-12.55,0 -22.76,10.21 -22.76,22.76 0,12.55 10.21,22.76 22.76,22.76 12.55,0 22.76,-10.21 22.76,-22.76 0,-12.55 -10.21,-22.76 -22.76,-22.76z"/>
  </g>
  <path class="fil5" d="M515.08 390.7l0 -5.18 10.54 0 0 0.23c1.42,-0.61 2.95,-0.84 4.5,-0.84 0.87,0 1.74,0.06 2.59,0.24 0.86,0.18 1.68,0.48 2.43,0.94 0.5,0.31 0.97,0.67 1.4,1.07 0.44,-0.41 0.93,-0.77 1.47,-1.07 1.52,-0.85 3.23,-1.18 4.97,-1.18 1.42,0 2.81,0.24 4.12,0.77 1.26,0.51 2.38,1.24 3.33,2.21 0.92,0.94 1.63,2.03 2.14,3.24 0.52,1.26 0.78,2.59 0.78,3.96l0 18.61 -10.77 0 0 -16.56c0,-0.69 -0.1,-1.49 -0.53,-2.06 -0.22,-0.29 -0.41,-0.39 -0.78,-0.39 -0.45,0 -0.7,0.18 -0.98,0.52 -0.48,0.61 -0.62,1.36 -0.62,2.12l0 16.37 -10.92 0 0 -16.46c0,-0.59 -0.02,-1.27 -0.14,-1.85 -0.02,-0.09 -0.07,-0.3 -0.12,-0.37 -0.02,-0.01 -0.04,-0.02 -0.06,-0.02 -0.32,-0.09 -0.71,-0.11 -1.04,-0.11 -0.3,0 -0.79,0.03 -1,0.28 -0.35,0.42 -0.4,1.42 -0.4,1.93l0 16.61 -10.92 0 0 -5.22c-0.41,0.61 -0.87,1.19 -1.39,1.73 -1.3,1.36 -2.86,2.37 -4.6,3.06 -1.85,0.74 -3.82,1.05 -5.8,1.05 -2.04,0 -4.08,-0.31 -5.98,-1.08 -1.74,-0.7 -3.31,-1.72 -4.61,-3.08 -0.72,-0.75 -1.33,-1.58 -1.84,-2.47 -0.01,0.01 -0.01,0.02 -0.02,0.03 -0.75,1.35 -1.72,2.54 -2.91,3.52 -1.18,0.99 -2.52,1.74 -3.97,2.26 -1.54,0.56 -3.15,0.81 -4.79,0.81 -1.79,0 -3.56,-0.29 -5.23,-0.95 -1.66,-0.66 -3.1,-1.67 -4.29,-3 -0.32,-0.35 -0.61,-0.73 -0.88,-1.11l0 4.45 -20.16 0 0 -16.56c0,-0.42 -0.04,-1.64 -0.27,-2.05 -0.27,-0.17 -1.1,-0.21 -1.37,-0.21 -2.08,0 -2.45,1.05 -2.45,3.02l0 15.8 -10.92 0 0 -3.89c-0.44,0.52 -0.93,1 -1.46,1.44 -1.18,0.99 -2.52,1.74 -3.97,2.26 -1.54,0.56 -3.15,0.81 -4.79,0.81 -1.79,0 -3.56,-0.29 -5.23,-0.95 -1.66,-0.66 -3.1,-1.67 -4.29,-3 -0.92,-1.03 -1.64,-2.2 -2.19,-3.46 -0.5,1.15 -1.14,2.24 -1.95,3.22 -1.11,1.35 -2.47,2.4 -4.06,3.13 -1.6,0.73 -3.3,1.07 -5.05,1.07 -1.54,0 -2.97,-0.27 -4.25,-0.82l-0 0.2 -19.6 0 0 -16.56c0,-0.42 -0.04,-1.64 -0.27,-2.05 -0.27,-0.17 -1.1,-0.21 -1.37,-0.21 -2.08,0 -2.45,1.05 -2.45,3.02l0 15.8 -18.77 0 -0.16 -0.51c-0.17,0.08 -0.33,0.15 -0.5,0.22 -1.61,0.66 -3.35,0.91 -5.08,0.91 -2.68,0 -5.54,-0.52 -7.56,-2.44 -0.82,-0.78 -1.44,-1.66 -1.87,-2.63 -0.73,1.01 -1.62,1.91 -2.68,2.67 -2.33,1.67 -5.01,2.4 -7.86,2.4 -5.4,0 -9.18,-1.85 -11.45,-5.11l0 4.49 -10.92 0 0 -3.89c-0.44,0.52 -0.93,1 -1.46,1.44 -1.18,0.99 -2.52,1.74 -3.97,2.26 -1.54,0.56 -3.15,0.81 -4.79,0.81 -1.79,0 -3.56,-0.29 -5.23,-0.95 -1.66,-0.66 -3.1,-1.67 -4.29,-3 -0.43,-0.48 -0.82,-1 -1.17,-1.54l0 4.87 -9.86 0 -0.16 -0.51c-0.17,0.08 -0.33,0.15 -0.5,0.22 -1.61,0.66 -3.35,0.91 -5.08,0.91 -2.68,0 -5.54,-0.52 -7.56,-2.44 -0.75,-0.71 -1.33,-1.51 -1.75,-2.37 -0.27,0.41 -0.58,0.81 -0.91,1.18 -1.05,1.18 -2.34,2.06 -3.79,2.67 -1.63,0.7 -3.42,0.95 -5.19,0.95 -1.8,0 -3.63,-0.25 -5.3,-0.95 -1.45,-0.61 -2.75,-1.47 -3.81,-2.64 -0.37,-0.4 -0.7,-0.83 -0.99,-1.28 -0.53,0.86 -1.23,1.63 -2.09,2.31 -2.55,2.01 -5.95,2.56 -9.11,2.56 -3.42,0 -7.04,-0.62 -9.78,-2.8 -1.23,-0.97 -2.18,-2.11 -2.83,-3.4 -0.46,0.74 -1,1.44 -1.62,2.09 -1.3,1.36 -2.86,2.37 -4.6,3.06 -1.85,0.74 -3.82,1.05 -5.8,1.05 -2.04,0 -4.08,-0.31 -5.98,-1.08 -1.74,-0.7 -3.31,-1.72 -4.61,-3.08 -0.72,-0.75 -1.33,-1.58 -1.83,-2.47 -0.01,0.01 -0.01,0.02 -0.02,0.03 -0.75,1.35 -1.72,2.54 -2.91,3.52 -1.18,0.99 -2.52,1.74 -3.97,2.26 -1.54,0.56 -3.15,0.81 -4.79,0.81 -1.79,0 -3.56,-0.29 -5.23,-0.95 -1.66,-0.66 -3.1,-1.67 -4.29,-3 -0.32,-0.35 -0.61,-0.73 -0.88,-1.11l0 4.45 -11.35 0 0 -4.17 -1.19 4.17 -9.92 0 -1.91 -7.01 -1.91 7.01 -9.92 0 -5.16 -18.12 -5.19 18.12 -9.92 0 -1.91 -7.01 -1.91 7.01 -9.92 0 -5.16 -18.12 -5.19 18.12 -9.92 0 -1.91 -7.01 -1.91 7.01 -9.92 0 -8.01 -28.16 11.49 0 1.79 7.06 1.52 -7.06 10.05 0 1.78 7.32 1.74 -7.32 17.14 0 1.79 7.06 1.52 -7.06 10.05 0 1.78 7.32 1.74 -7.32 17.14 0 1.79 7.06 1.52 -7.06 10.05 0 1.78 7.32 1.74 -7.32 11.39 0 -4.87 17.01 6.83 0c-0.15,-1.07 -0.21,-2.14 -0.21,-3.21 0,-2.08 0.23,-4.22 0.91,-6.2 0.59,-1.72 1.48,-3.32 2.77,-4.63 1.23,-1.25 2.7,-2.16 4.35,-2.74 1.7,-0.6 3.49,-0.85 5.29,-0.85 1.66,0 3.32,0.22 4.91,0.74 1.49,0.49 2.87,1.23 4.08,2.25 1.11,0.94 2.01,2.07 2.68,3.37 0.49,-0.81 1.07,-1.57 1.74,-2.26 1.31,-1.35 2.87,-2.36 4.61,-3.05 1.88,-0.75 3.88,-1.05 5.9,-1.05 2,0 3.98,0.3 5.84,1.05 1.72,0.69 3.26,1.69 4.55,3.02 0.72,0.74 1.33,1.56 1.84,2.44 0.09,-0.29 0.19,-0.57 0.3,-0.85 0.52,-1.28 1.37,-2.34 2.45,-3.19 1.14,-0.89 2.5,-1.48 3.89,-1.87 1.67,-0.46 3.46,-0.61 5.18,-0.61 3.07,0 6.53,0.48 8.99,2.48 0.34,0.28 0.65,0.57 0.94,0.88l0 -9.08 10.82 0 0 6.34 12.96 0 0 3.44c0.32,-0.42 0.68,-0.8 1.08,-1.16 1.16,-1.05 2.57,-1.74 4.06,-2.2 1.74,-0.53 3.64,-0.7 5.45,-0.7 1.81,0 3.69,0.18 5.41,0.73 1.51,0.48 2.92,1.24 4.05,2.37 0.96,0.96 1.66,2.11 2.11,3.38 0.53,-1.06 1.2,-2.03 2.04,-2.89 1.23,-1.25 2.7,-2.16 4.35,-2.74 1.7,-0.6 3.49,-0.85 5.29,-0.85 1.66,0 3.32,0.22 4.91,0.74 1.49,0.49 2.87,1.23 4.08,2.25 0.37,0.31 0.72,0.65 1.04,1.01l0 -11.95 10.92 0 0 13.16c0.3,-0.42 0.62,-0.82 0.98,-1.2 1.23,-1.33 2.73,-2.33 4.41,-3 1.81,-0.72 3.75,-1 5.68,-1 3.94,0 7.55,1.23 10.06,4.36 0.6,0.74 1.09,1.55 1.5,2.41 0.03,-0.1 0.07,-0.2 0.1,-0.3 0.5,-1.39 1.31,-2.59 2.4,-3.58 1.16,-1.05 2.57,-1.74 4.06,-2.2 1.74,-0.53 3.64,-0.7 5.45,-0.7 1.81,0 3.69,0.18 5.41,0.73 1.51,0.48 2.92,1.24 4.05,2.37 0.33,0.33 0.63,0.68 0.9,1.06l0 -3.53 10.63 0 0 0.39c1.62,-0.75 3.44,-1.01 5.21,-1.01 1.32,0 2.63,0.2 3.88,0.63 1.25,0.44 2.38,1.11 3.32,2.04 0.34,0.33 0.64,0.68 0.92,1.05l0 -11.68 10.82 0 0 8.94c1.38,-0.65 2.91,-0.98 4.59,-0.98 1.78,0 3.52,0.34 5.12,1.12 1.53,0.75 2.82,1.83 3.86,3.18 0.63,0.82 1.14,1.71 1.56,2.64 0.56,-1.24 1.3,-2.39 2.27,-3.37 1.23,-1.25 2.7,-2.16 4.35,-2.74 1.7,-0.6 3.49,-0.85 5.29,-0.85 1.66,0 3.32,0.22 4.91,0.74 1.49,0.49 2.87,1.23 4.08,2.25 0.37,0.31 0.72,0.65 1.04,1.01l0 -3.38 10.63 0 0 0.39c1.62,-0.75 3.44,-1.01 5.21,-1.01 1.32,0 2.63,0.2 3.88,0.63 1.25,0.44 2.38,1.11 3.32,2.04 0.94,0.92 1.65,2.03 2.15,3.25 0.55,1.35 0.77,2.8 0.77,4.25l0 7.45 6.68 0c-0.15,-1.07 -0.21,-2.14 -0.21,-3.21 0,-2.08 0.23,-4.22 0.91,-6.2 0.59,-1.72 1.48,-3.32 2.77,-4.63 1.23,-1.25 2.7,-2.16 4.35,-2.74 1.7,-0.6 3.49,-0.85 5.29,-0.85 1.66,0 3.32,0.22 4.91,0.74 1.49,0.49 2.87,1.23 4.08,2.25 1.11,0.94 2.01,2.07 2.68,3.37 0.49,-0.81 1.07,-1.57 1.74,-2.26 1.31,-1.35 2.87,-2.36 4.61,-3.05 1.88,-0.75 3.89,-1.05 5.9,-1.05 2,0 3.98,0.3 5.84,1.05 1.72,0.69 3.26,1.69 4.55,3.02 0.52,0.54 0.99,1.12 1.4,1.73z"/>
  <path class="fil4" d="M80.99 411.32l-3.72 -13.63 -3.72 13.63 -6.34 0 -6.67 -23.44 6.53 0 3.81 15.05 3.24 -15.05 6.29 0 3.67 15.05 3.57 -15.05 6.38 0 -6.72 23.44 -6.34 0zm34.02 0l-3.72 -13.63 -3.72 13.63 -6.34 0 -6.67 -23.44 6.53 0 3.81 15.05 3.24 -15.05 6.29 0 3.67 15.05 3.57 -15.05 6.38 0 -6.72 23.44 -6.34 0zm34.02 0l-3.72 -13.63 -3.72 13.63 -6.34 0 -6.67 -23.44 6.53 0 3.81 15.05 3.24 -15.05 6.29 0 3.67 15.05 3.57 -15.05 6.38 0 -6.72 23.44 -6.34 0zm11.67 0l0 -6.43 6.62 0 0 6.43 -6.62 0zm30.16 -8.48c-0.16,1.37 -0.55,2.6 -1.17,3.72 -0.62,1.11 -1.41,2.06 -2.36,2.86 -0.95,0.79 -2.04,1.41 -3.26,1.86 -1.22,0.44 -2.55,0.67 -3.98,0.67 -1.59,0 -3.04,-0.26 -4.36,-0.79 -1.32,-0.52 -2.45,-1.32 -3.41,-2.38 -0.95,-1.06 -1.69,-2.38 -2.22,-3.95 -0.52,-1.57 -0.79,-3.41 -0.79,-5.5 0,-2.1 0.26,-3.91 0.79,-5.43 0.52,-1.52 1.26,-2.77 2.22,-3.74 0.95,-0.97 2.1,-1.69 3.45,-2.17 1.35,-0.48 2.85,-0.71 4.5,-0.71 1.52,0 2.91,0.21 4.17,0.62 1.25,0.41 2.35,1.02 3.29,1.81 0.94,0.79 1.68,1.75 2.22,2.86 0.54,1.11 0.86,2.35 0.95,3.72l-6.24 0c-0.16,-1.21 -0.64,-2.15 -1.45,-2.83 -0.81,-0.68 -1.8,-1.02 -2.98,-1.02 -0.67,0 -1.29,0.11 -1.86,0.33 -0.57,0.22 -1.07,0.6 -1.5,1.12 -0.43,0.52 -0.77,1.22 -1.02,2.1 -0.25,0.87 -0.38,1.95 -0.38,3.22 0,2.57 0.46,4.48 1.38,5.72 0.92,1.24 1.99,1.86 3.19,1.86 1.21,0 2.24,-0.33 3.1,-1 0.86,-0.67 1.35,-1.64 1.48,-2.91l6.24 0zm13.34 3.91c3.78,0 5.67,-2.38 5.67,-7.15 0,-4.73 -1.89,-7.1 -5.67,-7.1 -3.78,0 -5.67,2.37 -5.67,7.1 0,4.76 1.89,7.15 5.67,7.15zm0 5.19c-1.91,0 -3.61,-0.3 -5.1,-0.91 -1.49,-0.6 -2.76,-1.45 -3.79,-2.52 -1.03,-1.08 -1.82,-2.38 -2.36,-3.91 -0.54,-1.52 -0.81,-3.19 -0.81,-5 0,-1.84 0.28,-3.53 0.83,-5.05 0.56,-1.52 1.36,-2.83 2.41,-3.91 1.05,-1.08 2.31,-1.91 3.79,-2.5 1.48,-0.59 3.15,-0.88 5.03,-0.88 1.84,0 3.49,0.29 4.95,0.88 1.46,0.59 2.71,1.41 3.74,2.48 1.03,1.06 1.83,2.36 2.38,3.88 0.56,1.52 0.83,3.22 0.83,5.1 0,1.87 -0.28,3.56 -0.83,5.07 -0.56,1.51 -1.35,2.8 -2.38,3.88 -1.03,1.08 -2.29,1.91 -3.76,2.5 -1.48,0.59 -3.12,0.88 -4.93,0.88zm28.25 -16.96c-0.16,-1.14 -0.57,-1.95 -1.24,-2.41 -0.67,-0.46 -1.72,-0.69 -3.14,-0.69 -1.18,0 -2.08,0.15 -2.72,0.45 -0.64,0.3 -0.95,0.8 -0.95,1.5 0,0.7 0.32,1.23 0.95,1.6 0.64,0.37 1.59,0.72 2.86,1.07 1.33,0.38 2.6,0.72 3.81,1.02 1.21,0.3 2.27,0.63 3.19,0.98 1.24,0.51 2.19,1.2 2.86,2.07 0.67,0.87 1,2.07 1,3.6 0,2.45 -0.87,4.35 -2.6,5.72 -1.73,1.37 -4.28,2.05 -7.65,2.05 -3.62,0 -6.39,-0.76 -8.31,-2.29 -1.92,-1.52 -2.91,-3.48 -2.98,-5.86l6.38 0c0,1.11 0.43,1.97 1.29,2.57 0.86,0.6 2.05,0.91 3.57,0.91 1.11,0 2.08,-0.18 2.91,-0.55 0.83,-0.37 1.24,-0.99 1.24,-1.88 0,-0.83 -0.37,-1.41 -1.12,-1.76 -0.75,-0.35 -1.63,-0.65 -2.64,-0.91 -1.97,-0.48 -3.56,-0.91 -4.76,-1.29 -1.21,-0.38 -2.22,-0.84 -3.05,-1.38 -1.11,-0.7 -1.88,-1.49 -2.31,-2.38 -0.43,-0.89 -0.64,-1.86 -0.64,-2.91 0,-0.98 0.17,-1.91 0.52,-2.76 0.35,-0.86 0.92,-1.6 1.72,-2.22 0.79,-0.62 1.82,-1.1 3.07,-1.45 1.25,-0.35 2.77,-0.52 4.55,-0.52 3.4,0 5.9,0.65 7.5,1.95 1.6,1.3 2.49,3.22 2.64,5.76l-5.96 0zm21.39 0.91l5.76 0 0 6.67c0,1.24 -0.18,2.42 -0.55,3.55 -0.37,1.13 -0.94,2.13 -1.72,3 -0.78,0.87 -1.76,1.56 -2.95,2.07 -1.19,0.51 -2.61,0.76 -4.26,0.76 -1.72,0 -3.18,-0.25 -4.38,-0.76 -1.21,-0.51 -2.2,-1.19 -2.98,-2.05 -0.78,-0.86 -1.34,-1.86 -1.69,-3 -0.35,-1.14 -0.52,-2.35 -0.52,-3.62l0 -20.96 6.1 0 0 6.34 12.96 0 0 4.38 -12.96 0 0 9.62c0,1.49 0.28,2.64 0.83,3.45 0.56,0.81 1.47,1.21 2.74,1.21 1.24,0 2.15,-0.4 2.74,-1.19 0.59,-0.79 0.88,-1.92 0.88,-3.38l0 -6.1zm22.53 3.95c-0.32,0.32 -0.78,0.57 -1.38,0.76 -0.6,0.19 -1.48,0.4 -2.62,0.62 -1.78,0.35 -3,0.79 -3.67,1.33 -0.67,0.54 -1,1.32 -1,2.33 0,1.75 1,2.62 3,2.62 0.79,0 1.53,-0.13 2.22,-0.4 0.68,-0.27 1.27,-0.64 1.76,-1.1 0.49,-0.46 0.89,-1 1.19,-1.62 0.3,-0.62 0.45,-1.28 0.45,-1.98l0.05 -2.57zm0.43 11.48c-0.19,-0.6 -0.32,-1.3 -0.38,-2.1 -0.73,0.83 -1.7,1.48 -2.91,1.98 -1.21,0.49 -2.6,0.74 -4.19,0.74 -2.7,0 -4.68,-0.6 -5.93,-1.79 -1.25,-1.19 -1.88,-2.74 -1.88,-4.65 0,-1.68 0.27,-3.03 0.81,-4.03 0.54,-1 1.29,-1.79 2.24,-2.36 0.95,-0.57 2.09,-0.99 3.41,-1.26 1.32,-0.27 2.76,-0.52 4.31,-0.74 1.56,-0.22 2.6,-0.52 3.14,-0.88 0.54,-0.37 0.81,-0.96 0.81,-1.79 0,-0.76 -0.36,-1.36 -1.07,-1.79 -0.71,-0.43 -1.68,-0.64 -2.88,-0.64 -1.43,0 -2.45,0.32 -3.07,0.95 -0.62,0.64 -1.01,1.48 -1.17,2.52l-5.76 0c0.03,-1.21 0.23,-2.32 0.6,-3.34 0.37,-1.02 0.95,-1.89 1.76,-2.62 0.81,-0.73 1.87,-1.29 3.17,-1.69 1.3,-0.4 2.89,-0.6 4.76,-0.6 1.84,0 3.41,0.21 4.69,0.62 1.29,0.41 2.32,1.01 3.1,1.79 0.78,0.78 1.34,1.75 1.69,2.91 0.35,1.16 0.52,2.47 0.52,3.93l0 14.82 -5.76 0zm29.59 -8.48c-0.16,1.37 -0.55,2.6 -1.17,3.72 -0.62,1.11 -1.41,2.06 -2.36,2.86 -0.95,0.79 -2.04,1.41 -3.26,1.86 -1.22,0.44 -2.55,0.67 -3.98,0.67 -1.59,0 -3.04,-0.26 -4.36,-0.79 -1.32,-0.52 -2.45,-1.32 -3.41,-2.38 -0.95,-1.06 -1.69,-2.38 -2.22,-3.95 -0.52,-1.57 -0.79,-3.41 -0.79,-5.5 0,-2.1 0.26,-3.91 0.79,-5.43 0.52,-1.52 1.26,-2.77 2.22,-3.74 0.95,-0.97 2.1,-1.69 3.45,-2.17 1.35,-0.48 2.85,-0.71 4.5,-0.71 1.52,0 2.91,0.21 4.17,0.62 1.25,0.41 2.35,1.02 3.29,1.81 0.94,0.79 1.68,1.75 2.22,2.86 0.54,1.11 0.86,2.35 0.95,3.72l-6.24 0c-0.16,-1.21 -0.64,-2.15 -1.45,-2.83 -0.81,-0.68 -1.8,-1.02 -2.98,-1.02 -0.67,0 -1.29,0.11 -1.86,0.33 -0.57,0.22 -1.07,0.6 -1.5,1.12 -0.43,0.52 -0.77,1.22 -1.02,2.1 -0.25,0.87 -0.38,1.95 -0.38,3.22 0,2.57 0.46,4.48 1.38,5.72 0.92,1.24 1.98,1.86 3.19,1.86 1.21,0 2.24,-0.33 3.1,-1 0.86,-0.67 1.35,-1.64 1.48,-2.91l6.24 0zm1.81 8.48l0 -32.02 6.19 0 0 32.02 -6.19 0zm24.25 -14.01c-0.03,-0.86 -0.18,-1.61 -0.45,-2.26 -0.27,-0.65 -0.63,-1.19 -1.07,-1.62 -0.44,-0.43 -0.95,-0.75 -1.52,-0.95 -0.57,-0.21 -1.16,-0.31 -1.76,-0.31 -1.24,0 -2.31,0.45 -3.22,1.36 -0.91,0.91 -1.42,2.17 -1.55,3.79l9.58 0zm-9.77 3.91c0.1,1.78 0.61,3.19 1.55,4.24 0.94,1.05 2.17,1.57 3.69,1.57 1.02,0 1.91,-0.23 2.69,-0.69 0.78,-0.46 1.28,-1.1 1.5,-1.93l6.38 0c-0.73,2.41 -2,4.27 -3.81,5.57 -1.81,1.3 -3.97,1.95 -6.48,1.95 -7.81,0 -11.72,-4.26 -11.72,-12.77 0,-1.81 0.25,-3.45 0.76,-4.91 0.51,-1.46 1.25,-2.72 2.22,-3.76 0.97,-1.05 2.15,-1.85 3.55,-2.41 1.4,-0.56 3,-0.83 4.81,-0.83 3.62,0 6.36,1.16 8.22,3.48 1.86,2.32 2.79,5.81 2.79,10.48l-16.15 0zm32.54 -1.38c-0.32,0.32 -0.78,0.57 -1.38,0.76 -0.6,0.19 -1.48,0.4 -2.62,0.62 -1.78,0.35 -3,0.79 -3.67,1.33 -0.67,0.54 -1,1.32 -1,2.33 0,1.75 1,2.62 3,2.62 0.79,0 1.53,-0.13 2.22,-0.4 0.68,-0.27 1.27,-0.64 1.76,-1.1 0.49,-0.46 0.89,-1 1.19,-1.62 0.3,-0.62 0.45,-1.28 0.45,-1.98l0.05 -2.57zm0.43 11.48c-0.19,-0.6 -0.32,-1.3 -0.38,-2.1 -0.73,0.83 -1.7,1.48 -2.91,1.98 -1.21,0.49 -2.6,0.74 -4.19,0.74 -2.7,0 -4.68,-0.6 -5.93,-1.79 -1.25,-1.19 -1.88,-2.74 -1.88,-4.65 0,-1.68 0.27,-3.03 0.81,-4.03 0.54,-1 1.29,-1.79 2.24,-2.36 0.95,-0.57 2.09,-0.99 3.41,-1.26 1.32,-0.27 2.76,-0.52 4.31,-0.74 1.56,-0.22 2.6,-0.52 3.14,-0.88 0.54,-0.37 0.81,-0.96 0.81,-1.79 0,-0.76 -0.36,-1.36 -1.07,-1.79 -0.71,-0.43 -1.68,-0.64 -2.88,-0.64 -1.43,0 -2.45,0.32 -3.07,0.95 -0.62,0.64 -1.01,1.48 -1.17,2.52l-5.76 0c0.03,-1.21 0.23,-2.32 0.6,-3.34 0.37,-1.02 0.95,-1.89 1.76,-2.62 0.81,-0.73 1.87,-1.29 3.17,-1.69 1.3,-0.4 2.89,-0.6 4.76,-0.6 1.84,0 3.41,0.21 4.69,0.62 1.29,0.41 2.32,1.01 3.1,1.79 0.78,0.78 1.34,1.75 1.69,2.91 0.35,1.16 0.52,2.47 0.52,3.93l0 14.82 -5.76 0zm23.49 0l0 -14.2c0,-1.81 -0.3,-3.03 -0.91,-3.67 -0.6,-0.64 -1.64,-0.95 -3.1,-0.95 -3.21,0 -4.81,1.79 -4.81,5.38l0 13.44 -6.19 0 0 -23.44 5.91 0 0 3.43c0.73,-1.33 1.7,-2.34 2.91,-3.03 1.21,-0.68 2.76,-1.02 4.67,-1.02 1.11,0 2.14,0.17 3.1,0.5 0.95,0.33 1.77,0.83 2.45,1.5 0.68,0.67 1.22,1.49 1.62,2.45 0.4,0.97 0.6,2.09 0.6,3.36l0 16.25 -6.24 0zm20.06 -4.43c1.56,0 2.83,-0.66 3.81,-1.98 0.98,-1.32 1.48,-3.03 1.48,-5.12 0,-4.83 -1.78,-7.24 -5.34,-7.24 -3.46,0 -5.19,2.54 -5.19,7.62 0,2 0.5,3.62 1.5,4.86 1,1.24 2.25,1.86 3.74,1.86zm-11.1 4.43l0 -32.02 6.1 0 0 11.62c1.75,-2.45 4.07,-3.67 6.96,-3.67 1.52,0 2.88,0.29 4.07,0.88 1.19,0.59 2.2,1.42 3.03,2.5 0.83,1.08 1.45,2.36 1.88,3.84 0.43,1.48 0.64,3.1 0.64,4.88 0,1.97 -0.25,3.73 -0.76,5.29 -0.51,1.56 -1.21,2.87 -2.1,3.95 -0.89,1.08 -1.96,1.91 -3.22,2.48 -1.25,0.57 -2.61,0.86 -4.07,0.86 -2.92,0 -5.1,-1.16 -6.53,-3.48l-0.05 2.86 -5.96 0zm46.07 -8.48c-0.16,1.37 -0.55,2.6 -1.17,3.72 -0.62,1.11 -1.41,2.06 -2.36,2.86 -0.95,0.79 -2.04,1.41 -3.26,1.86 -1.22,0.44 -2.55,0.67 -3.98,0.67 -1.59,0 -3.04,-0.26 -4.36,-0.79 -1.32,-0.52 -2.45,-1.32 -3.41,-2.38 -0.95,-1.06 -1.69,-2.38 -2.22,-3.95 -0.52,-1.57 -0.79,-3.41 -0.79,-5.5 0,-2.1 0.26,-3.91 0.79,-5.43 0.52,-1.52 1.26,-2.77 2.22,-3.74 0.95,-0.97 2.1,-1.69 3.45,-2.17 1.35,-0.48 2.85,-0.71 4.5,-0.71 1.52,0 2.91,0.21 4.17,0.62 1.25,0.41 2.35,1.02 3.29,1.81 0.94,0.79 1.68,1.75 2.22,2.86 0.54,1.11 0.86,2.35 0.95,3.72l-6.24 0c-0.16,-1.21 -0.64,-2.15 -1.45,-2.83 -0.81,-0.68 -1.8,-1.02 -2.98,-1.02 -0.67,0 -1.29,0.11 -1.86,0.33 -0.57,0.22 -1.07,0.6 -1.5,1.12 -0.43,0.52 -0.77,1.22 -1.02,2.1 -0.25,0.87 -0.38,1.95 -0.38,3.22 0,2.57 0.46,4.48 1.38,5.72 0.92,1.24 1.98,1.86 3.19,1.86 1.21,0 2.24,-0.33 3.1,-1 0.86,-0.67 1.35,-1.64 1.48,-2.91l6.24 0zm16.82 8.48l0 -14.2c0,-1.81 -0.3,-3.03 -0.91,-3.67 -0.6,-0.64 -1.64,-0.95 -3.1,-0.95 -3.21,0 -4.81,1.79 -4.81,5.38l0 13.44 -6.19 0 0 -23.44 5.91 0 0 3.43c0.73,-1.33 1.7,-2.34 2.91,-3.03 1.21,-0.68 2.76,-1.02 4.67,-1.02 1.11,0 2.14,0.17 3.1,0.5 0.95,0.33 1.77,0.83 2.45,1.5 0.68,0.67 1.22,1.49 1.62,2.45 0.4,0.97 0.6,2.09 0.6,3.36l0 16.25 -6.24 0zm8.81 0l0 -6.43 6.62 0 0 6.43 -6.62 0zm30.16 -8.48c-0.16,1.37 -0.55,2.6 -1.17,3.72 -0.62,1.11 -1.41,2.06 -2.36,2.86 -0.95,0.79 -2.04,1.41 -3.26,1.86 -1.22,0.44 -2.55,0.67 -3.98,0.67 -1.59,0 -3.04,-0.26 -4.36,-0.79 -1.32,-0.52 -2.45,-1.32 -3.41,-2.38 -0.95,-1.06 -1.69,-2.38 -2.22,-3.95 -0.52,-1.57 -0.79,-3.41 -0.79,-5.5 0,-2.1 0.26,-3.91 0.79,-5.43 0.52,-1.52 1.26,-2.77 2.22,-3.74 0.95,-0.97 2.1,-1.69 3.45,-2.17 1.35,-0.48 2.85,-0.71 4.5,-0.71 1.52,0 2.91,0.21 4.17,0.62 1.25,0.41 2.35,1.02 3.29,1.81 0.94,0.79 1.68,1.75 2.22,2.86 0.54,1.11 0.86,2.35 0.95,3.72l-6.24 0c-0.16,-1.21 -0.64,-2.15 -1.45,-2.83 -0.81,-0.68 -1.8,-1.02 -2.98,-1.02 -0.67,0 -1.29,0.11 -1.86,0.33 -0.57,0.22 -1.07,0.6 -1.5,1.12 -0.43,0.52 -0.77,1.22 -1.02,2.1 -0.25,0.87 -0.38,1.95 -0.38,3.22 0,2.57 0.46,4.48 1.38,5.72 0.92,1.24 1.99,1.86 3.19,1.86 1.21,0 2.24,-0.33 3.1,-1 0.86,-0.67 1.35,-1.64 1.48,-2.91l6.24 0zm13.34 3.91c3.78,0 5.67,-2.38 5.67,-7.15 0,-4.73 -1.89,-7.1 -5.67,-7.1 -3.78,0 -5.67,2.37 -5.67,7.1 0,4.76 1.89,7.15 5.67,7.15zm0 5.19c-1.91,0 -3.6,-0.3 -5.1,-0.91 -1.49,-0.6 -2.76,-1.45 -3.79,-2.52 -1.03,-1.08 -1.82,-2.38 -2.36,-3.91 -0.54,-1.52 -0.81,-3.19 -0.81,-5 0,-1.84 0.28,-3.53 0.83,-5.05 0.56,-1.52 1.36,-2.83 2.41,-3.91 1.05,-1.08 2.31,-1.91 3.79,-2.5 1.48,-0.59 3.15,-0.88 5.03,-0.88 1.84,0 3.49,0.29 4.95,0.88 1.46,0.59 2.71,1.41 3.74,2.48 1.03,1.06 1.83,2.36 2.38,3.88 0.56,1.52 0.83,3.22 0.83,5.1 0,1.87 -0.28,3.56 -0.83,5.07 -0.56,1.51 -1.35,2.8 -2.38,3.88 -1.03,1.08 -2.29,1.91 -3.76,2.5 -1.48,0.59 -3.12,0.88 -4.93,0.88zm41.64 -0.62l0 -14.2c0,-1.43 -0.33,-2.59 -1,-3.48 -0.67,-0.89 -1.56,-1.33 -2.67,-1.33 -1.14,0 -2.09,0.48 -2.83,1.43 -0.75,0.95 -1.12,2.14 -1.12,3.57l0 14.01 -6.19 0 0 -14.1c0,-0.95 -0.06,-1.73 -0.19,-2.33 -0.13,-0.6 -0.34,-1.08 -0.64,-1.43 -0.3,-0.35 -0.69,-0.6 -1.17,-0.74 -0.48,-0.14 -1.05,-0.21 -1.71,-0.21 -2.51,0 -3.76,1.52 -3.76,4.57l0 14.24 -6.19 0 0 -23.44 5.81 0 0 3.43c0.79,-1.56 1.75,-2.62 2.86,-3.19 1.11,-0.57 2.45,-0.86 4,-0.86 0.79,0 1.5,0.06 2.12,0.19 0.62,0.13 1.18,0.34 1.67,0.64 0.49,0.3 0.96,0.69 1.41,1.17 0.44,0.48 0.89,1.05 1.33,1.72 0.64,-1.3 1.48,-2.25 2.52,-2.83 1.05,-0.59 2.32,-0.88 3.81,-0.88 1.17,0 2.25,0.2 3.24,0.6 0.98,0.4 1.83,0.95 2.52,1.67 0.7,0.71 1.25,1.55 1.64,2.5 0.4,0.95 0.6,1.97 0.6,3.05l0 16.25 -6.05 0z"/>
 </g>
</svg>
