<?xml version="1.0" encoding="UTF-8"?>
<!DOCTYPE svg PUBLIC "-//W3C//DTD SVG 1.1//EN" "http://www.w3.org/Graphics/SVG/1.1/DTD/svg11.dtd">
<!-- Creator: CorelDRAW (Versión de evaluación) -->
<svg xmlns="http://www.w3.org/2000/svg" xml:space="preserve" width="195.882mm" height="140.535mm" version="1.1" style="shape-rendering:geometricPrecision; text-rendering:geometricPrecision; image-rendering:optimizeQuality; fill-rule:evenodd; clip-rule:evenodd"
viewBox="0 0 429.77 308.34"
 xmlns:xlink="http://www.w3.org/1999/xlink"
 xmlns:xodm="http://www.corel.com/coreldraw/odm/2003">
 <defs>
  <style type="text/css">
   <![CDATA[
    .fil4 {fill:white;fill-rule:nonzero}
    .fil0 {fill:url(#id0)}
    .fil2 {fill:url(#id1)}
    .fil1 {fill:url(#id2)}
    .fil3 {fill:url(#id3)}
   ]]>
  </style>
  <linearGradient id="id0" gradientUnits="userSpaceOnUse" x1="176.71" y1="259.32" x2="176.71" y2="32.69">
   <stop offset="0" style="stop-opacity:1; stop-color:black"/>
   <stop offset="1" style="stop-opacity:1; stop-color:black"/>
  </linearGradient>
  <linearGradient id="id1" gradientUnits="userSpaceOnUse" x1="172.19" y1="164.35" x2="172.19" y2="83.68">
   <stop offset="0" style="stop-opacity:1; stop-color:#00AEF0"/>
   <stop offset="1" style="stop-opacity:1; stop-color:#FEFEFE"/>
  </linearGradient>
  <linearGradient id="id2" gradientUnits="userSpaceOnUse" xlink:href="#id1" x1="192.94" y1="198.08" x2="192.95" y2="29.09">
  </linearGradient>
  <linearGradient id="id3" gradientUnits="userSpaceOnUse" xlink:href="#id1" x1="264.68" y1="113.97" x2="264.68" y2="64.65">
  </linearGradient>
 </defs>
 <g id="Capa_x0020_1">
  <metadata id="CorelCorpID_0Corel-Layer"/>
  <path class="fil0" d="M330 93.39c2.05,1.39 3.72,3.53 4.91,6.46 0.85,2.08 0.15,4.4 -1.7,5.66 -0.39,0.27 -0.8,0.47 -1.23,0.61 0.43,-0.02 0.81,-0.04 1.1,-0.05 5.23,-0.21 10.46,-0.46 15.7,-0.36 9.2,0.18 24.53,1.33 26.93,12.56 0.46,2.15 -0.57,4.26 -2.55,5.22 -1.97,0.96 -4.27,0.46 -5.68,-1.22 -3.07,-3.69 -11.84,-2.42 -15.89,-1.75 -4.78,0.79 -9.54,1.97 -14.23,3.15 -5.29,1.33 -10.57,2.71 -15.9,3.88 -7.62,1.68 -14.56,2.38 -22.3,1.15 -2.99,-0.48 -5.94,-1.19 -8.89,-1.87 -3.43,-0.8 -6.83,-1.53 -10.31,-2.1 -3.74,-0.61 -7.48,-1.06 -11.25,-0.45 -1.57,0.25 -3.13,0.64 -4.68,1.02 -2.3,0.55 -4.59,1.07 -6.91,1.49 -5,0.92 -11.02,1.19 -15.54,-1.55 -3.74,-2.26 -5.66,-6.15 -5.31,-10.46 0.1,-1.24 0.39,-2.47 0.83,-3.64 -0.79,0.4 -1.57,0.79 -2.36,1.15 -2.73,1.24 -5.56,2.89 -8.23,4.31 -4.31,2.3 -8.65,4.56 -13.08,6.63 -4.31,2.01 -8.99,4.03 -13.6,5.22 -4.09,1.06 -9.24,1.7 -12.64,-1.41 -1.54,-1.4 -1.97,-3.55 -1.11,-5.44 0.87,-1.89 2.78,-2.96 4.84,-2.71 8.48,1.02 22.8,-17.27 27.4,-23.12 5.33,-6.79 10.39,-13.79 15.69,-20.6 3.96,-5.08 9.03,-11.53 14.21,-15.36 7.84,-5.78 17.95,-8.29 27.54,-6.31 3.48,0.72 7.13,2.13 10.2,4.26 -17.49,-20.05 -43.17,-32.33 -71.08,-32.33 -49.16,0 -89.77,37.73 -93.89,86.11 2.06,-2.91 4.12,-5.81 6.22,-8.69 3.52,-4.84 7.13,-9.66 10.99,-14.24 3.06,-3.64 6.47,-7.39 10.21,-10.35 11.32,-8.95 26.06,-13.02 40.28,-9.88 10.73,2.37 22.23,9.54 24.52,21.08 0.42,2.14 -0.62,4.22 -2.58,5.16 -1.96,0.94 -4.24,0.45 -5.64,-1.22 -1.9,-2.26 -6.17,-2.17 -8.79,-1.74 -5.17,0.85 -10.29,3.62 -14.12,7.15 -12.32,11.34 -10.06,27.07 -2.3,40.41 4.92,8.45 11.51,14.89 21.77,14.76 8.97,-0.11 18.86,-5.06 26.63,-9.27 4.57,-2.48 9.07,-5.11 13.66,-7.55 4.11,-2.19 8.54,-4.38 13.03,-5.66 10.54,-3 18.37,0.52 22.36,11 0.8,2.1 0.04,4.42 -1.85,5.64 -1.89,1.22 -4.32,0.95 -5.9,-0.65 -1.99,-2.01 -5.59,-0.98 -7.46,0.67 -2.6,2.28 -1.21,4.39 1.1,6.22 2.32,0.65 10.51,0.19 12.79,0.09 8.01,-0.34 15.99,-0.77 24.01,-0.64 13.31,0.22 36.18,1.8 39.46,18.25 0.43,2.17 -0.65,4.28 -2.66,5.2 -2.01,0.92 -4.32,0.35 -5.67,-1.39 -2.1,-2.71 -5.37,-4.09 -9.02,-4.69 0.14,0.94 -0.02,1.9 -0.48,2.8 -20.44,40.05 -61.54,65.33 -106.65,65.33 -46.56,0 -88.74,-26.95 -108.42,-68.98 -0.1,-0.22 -0.18,-0.44 -0.25,-0.66 -4.37,2.43 -8.77,4.8 -13.24,7.03 -6.41,3.21 -13.47,6.47 -20.39,8.38 -5.43,1.5 -12.74,2.67 -17.21,-1.7 -1.47,-1.44 -1.84,-3.57 -0.95,-5.42 0.9,-1.85 2.8,-2.88 4.84,-2.62 6.85,0.88 14.91,-5.65 19.56,-9.94 7.46,-6.88 14.32,-15.37 20.57,-23.7 -1.47,-0.63 -2.5,-1.95 -2.75,-3.59 -0.95,-6.11 -1.42,-12.29 -1.42,-18.48 0,-66.09 53.58,-119.67 119.67,-119.67 54.48,0 102.15,36.86 115.82,89.49 0.36,1.4 0.11,2.77 -0.71,3.9zm-23.17 3.66c-0.42,-0.51 -0.72,-1.11 -0.9,-1.79 -2.79,-10.43 -7.27,-20.07 -13.11,-28.63 0.11,0.37 0.21,0.75 0.29,1.13 0.45,2.11 -0.54,4.19 -2.47,5.17 -1.93,0.98 -4.19,0.56 -5.64,-1.05 -0.78,-0.86 -3.4,-0.7 -4.4,-0.55 -3.05,0.47 -6.15,2 -8.48,4.01 -7.27,6.25 -5.79,14.77 -1.16,22.21 3.05,4.9 6.92,8.31 12.9,8.24 5.58,-0.07 11.89,-3.02 16.79,-5.51 1.97,-1 4.05,-2.13 6.17,-3.24zm-178.52 60.34c0.26,0.32 0.48,0.68 0.66,1.08 0.81,1.78 1.67,3.54 2.59,5.27 0.78,-4 2.82,-7.86 5.72,-10.67 -3.14,1.08 -6.04,2.75 -8.98,4.32zm16.62 25.43c17.82,19.74 43.08,31.08 69.95,31.08 30.3,0 58.5,-14.46 76.23,-38.83 -2.82,0.72 -5.64,1.47 -8.43,2.22 -8.06,2.17 -16.1,4.42 -24.23,6.34 -11.37,2.68 -21.68,3.83 -33.26,1.85 -4.52,-0.77 -8.98,-1.93 -13.43,-3.03 -5.28,-1.32 -10.53,-2.53 -15.89,-3.46 -5.96,-1.04 -11.86,-1.78 -17.87,-0.74 -2.46,0.42 -4.89,1.08 -7.31,1.7 -3.47,0.89 -6.92,1.72 -10.44,2.41 -4.77,0.94 -10.29,1.47 -15.33,0.47zm179.89 -76.7c1.06,0.17 2.92,0.16 4.67,0.1 -0.79,-0.18 -1.55,-0.58 -2.18,-1.18 -0.6,-0.57 -2.38,-0.05 -3.01,0.58 0.14,0.16 0.34,0.34 0.52,0.5zm84.77 180.92c2.28,-1.98 5.07,-2.95 8.12,-2.95 3.18,0 6.08,1.06 8.42,3.22 2.48,2.29 3.64,5.35 3.64,8.71 0,3.3 -1.17,6.29 -3.56,8.6 -2.33,2.26 -5.26,3.39 -8.5,3.39 -3.24,0 -6.17,-1.13 -8.5,-3.39 -0,-0 -0.01,-0.01 -0.01,-0.01 -0.73,1.66 -2.39,2.82 -4.31,2.82l-12.24 0c-2.59,0 -4.71,-2.11 -4.71,-4.71l0 -17.98c0,-0.5 -0.06,-1.92 -0.34,-2.34 -0.09,-0.1 -0.56,-0.11 -0.69,-0.11 -0.47,0 -0.9,0.08 -1.31,0.3 -0.25,0.14 -0.41,0.38 -0.54,0.64 -0.34,0.68 -0.41,1.85 -0.41,2.6l0 16.88c0,2.59 -2.11,4.71 -4.71,4.71l-12.24 0c-1.6,0 -3.01,-0.8 -3.87,-2.03 -0.85,1.22 -2.27,2.03 -3.87,2.03l-11.41 0c-0.98,0 -1.89,-0.3 -2.64,-0.81 -2.41,1.01 -5.04,1.39 -7.67,1.39 -3.14,0 -6.31,-0.51 -9.16,-1.9 -2.38,-1.16 -4.42,-2.81 -5.92,-4.97 -2.14,2.25 -4.72,3.94 -7.62,5.08 -3.31,1.3 -6.89,1.78 -10.43,1.78 -4.49,0 -8.92,-0.82 -12.93,-2.87 -3.49,-1.78 -6.41,-4.27 -8.59,-7.49l0 5.07c0,2.59 -2.11,4.71 -4.71,4.71l-12.18 0c-2.59,0 -4.7,-2.11 -4.71,-4.7l-0 -1.32c-2,1.74 -4.26,3.17 -6.73,4.28 -4.14,1.87 -8.6,2.64 -13.12,2.64 -3.95,0 -7.85,-0.62 -11.55,-2.01 -3.52,-1.32 -6.72,-3.26 -9.45,-5.86 -2.69,-2.56 -4.78,-5.57 -6.26,-8.97 -1.57,-3.59 -2.26,-7.42 -2.26,-11.32 0,-3.91 0.7,-7.73 2.26,-11.32 1.48,-3.4 3.57,-6.42 6.26,-8.97 2.73,-2.6 5.93,-4.54 9.45,-5.86 3.7,-1.39 7.6,-2.01 11.55,-2.01 4.51,0 8.96,0.76 13.09,2.6 2.46,1.09 4.7,2.51 6.69,4.24l-0.01 -3.93c-0,-1.3 0.46,-2.41 1.38,-3.33 0.92,-0.92 2.03,-1.38 3.33,-1.38l12.24 0c2.59,0 4.71,2.11 4.71,4.71l0 17.72c2.08,-3.11 4.84,-5.55 8.19,-7.3 3.75,-1.96 7.83,-2.82 12.04,-2.82 4,0 7.89,0.81 11.49,2.58 2.64,1.3 4.91,3.07 6.77,5.26 0.24,-1.2 0.95,-2.29 2.05,-3.01 2.6,-1.7 5.52,-2.85 8.53,-3.61 3.09,-0.79 6.26,-1.21 9.45,-1.21 5.78,0 11.66,1.2 16.19,4.99 2.16,1.81 3.68,4 4.68,6.43l0 -6.13c0,-2.59 2.11,-4.71 4.71,-4.71l11.66 0c1.08,0 2.08,0.37 2.88,0.98 2.6,-1.07 5.36,-1.56 8.21,-1.56 3.3,0 6.5,0.66 9.45,2.14 3.11,1.55 5.51,3.95 7.2,6.98 1.88,3.38 2.5,7.3 2.5,11.12l0 4.3zm-147.62 -15.84l-5.37 4.86c-0.98,0.89 -2.15,1.29 -3.47,1.21 -1.32,-0.09 -2.42,-0.64 -3.28,-1.65 -0.95,-1.12 -2.07,-2.12 -3.38,-2.8 -1.14,-0.59 -2.38,-0.82 -3.67,-0.82 -1.15,0 -2.3,0.16 -3.38,0.58 -0.87,0.34 -1.63,0.82 -2.28,1.49 -0.71,0.73 -1.22,1.6 -1.59,2.55 -0.44,1.13 -0.61,2.35 -0.61,3.57 0,1.21 0.17,2.43 0.61,3.57 0.37,0.95 0.88,1.81 1.59,2.55 0.65,0.67 1.41,1.15 2.28,1.49 1.08,0.42 2.23,0.58 3.38,0.58 1.28,0 2.52,-0.23 3.67,-0.82 1.31,-0.68 2.43,-1.68 3.38,-2.8 0.86,-1.01 1.96,-1.56 3.28,-1.65 1.32,-0.09 2.49,0.32 3.47,1.21l5.39 4.88 -0.02 -17.96zm-104.94 -4.02c2.54,-1.61 5.38,-2.72 8.29,-3.46 3.09,-0.79 6.26,-1.21 9.45,-1.21 5.78,0 11.66,1.2 16.19,4.99 4.76,3.97 6.36,9.83 6.36,15.83l0 19.4c0,2.59 -2.11,4.71 -4.71,4.71l-11.41 0c-0.98,0 -1.89,-0.3 -2.64,-0.81 -2.41,1.01 -5.04,1.39 -7.67,1.39 -3.14,0 -6.31,-0.51 -9.16,-1.9 -1.05,-0.51 -2.03,-1.12 -2.93,-1.82 -0.29,0.35 -0.63,0.66 -1.03,0.92 -1.64,1.1 -3.5,1.79 -5.43,2.2 -1.87,0.4 -3.78,0.59 -5.69,0.59 -4.93,0 -9.8,-1.16 -13.57,-4.51 -1.82,-1.61 -3.09,-3.54 -3.93,-5.64 -0.43,0.92 -0.97,1.79 -1.6,2.63 -2,2.62 -4.76,4.42 -7.78,5.64 -3.54,1.43 -7.47,1.89 -11.27,1.89 -3.3,0 -6.58,-0.38 -9.78,-1.17 -2.78,-0.68 -5.64,-1.64 -8.1,-3.11 -1.06,-0.64 -1.79,-1.62 -2.11,-2.73 -1.66,1.66 -3.58,3.04 -5.74,4.14 -3.83,1.96 -8.02,2.82 -12.3,2.87 -0.04,0 -0.07,0 -0.11,0 -4.29,-0.05 -8.5,-0.89 -12.33,-2.88 -2.67,-1.39 -4.99,-3.21 -6.89,-5.45 -2.42,2.55 -5.29,4.55 -8.54,6.01 -4.14,1.87 -8.6,2.64 -13.12,2.64 -3.95,0 -7.85,-0.62 -11.55,-2.01 -3.52,-1.32 -6.72,-3.26 -9.45,-5.86 -2.69,-2.56 -4.78,-5.57 -6.26,-8.97 -1.57,-3.59 -2.26,-7.42 -2.26,-11.32 0,-3.91 0.7,-7.73 2.26,-11.32 1.48,-3.4 3.57,-6.42 6.26,-8.97 2.73,-2.6 5.93,-4.54 9.45,-5.86 3.7,-1.39 7.6,-2.01 11.55,-2.01 4.51,0 8.96,0.76 13.09,2.6 3.93,1.75 7.3,4.31 9.99,7.68 1.55,1.95 1.32,4.75 -0.52,6.42l-8.12 7.35c-0.98,0.89 -2.15,1.29 -3.47,1.21 -1.32,-0.09 -2.42,-0.64 -3.28,-1.65 -0.95,-1.12 -2.07,-2.12 -3.38,-2.8 -1.14,-0.59 -2.38,-0.82 -3.67,-0.82 -1.15,0 -2.3,0.16 -3.38,0.58 -0.87,0.34 -1.63,0.82 -2.28,1.49 -0.71,0.73 -1.22,1.6 -1.59,2.55 -0.44,1.13 -0.61,2.35 -0.61,3.57 0,1.21 0.17,2.43 0.61,3.57 0.37,0.95 0.88,1.81 1.59,2.55 0.65,0.67 1.41,1.15 2.28,1.49 1.08,0.42 2.23,0.58 3.38,0.58 1.28,0 2.52,-0.23 3.67,-0.82 1.31,-0.68 2.43,-1.68 3.38,-2.8 0.86,-1.01 1.96,-1.56 3.28,-1.65 1.32,-0.09 2.49,0.32 3.47,1.21l2.07 1.88c-0.01,-0.3 -0.02,-0.6 -0.02,-0.9 0,-4.24 1,-8.29 3.27,-11.89 2.18,-3.45 5.17,-6.12 8.79,-8.01 3.82,-2 8,-2.85 12.29,-2.85 4.34,0 8.57,0.84 12.44,2.85 3.15,1.63 5.82,3.85 7.88,6.67 0.36,-0.69 0.79,-1.36 1.27,-2.01 1.99,-2.64 4.74,-4.45 7.79,-5.67 3.47,-1.38 7.3,-1.85 11.02,-1.85 2.8,0 5.6,0.29 8.35,0.83 1.97,0.39 3.94,0.95 5.78,1.76 0.72,-0.45 1.58,-0.72 2.49,-0.72l0.38 0 0 -4.38c0,-2.59 2.11,-4.71 4.71,-4.71l12.24 0c2.59,0 4.71,2.11 4.71,4.71l0 4.38 3.28 0c1.92,0 3.57,1.15 4.3,2.8zm0.4 10.8l0 0.26c0,2.59 -2.11,4.71 -4.71,4.71l-3.28 0 0 5.94c1.24,-0.87 2.68,-1.09 4.13,-0.63 0.06,0.02 0.12,0.04 0.18,0.06 0.41,-1.42 1.04,-2.78 1.92,-4.04 0.91,-1.3 2.02,-2.37 3.27,-3.26l-1.51 -3.04zm-29.8 4.97c0.05,0.06 0.1,0.13 0.15,0.19l0 -0.19 -0.15 0zm-54.5 2.31c-0.03,-0.76 -0.14,-1.68 -0.49,-2.35 -0.2,-0.38 -0.45,-0.72 -0.83,-0.94 -0.43,-0.25 -0.96,-0.32 -1.45,-0.32 -0.46,0 -0.86,0.08 -1.25,0.32 -0.4,0.24 -0.67,0.59 -0.89,0.99 -0.35,0.65 -0.46,1.55 -0.49,2.29 0.03,0.77 0.16,1.6 0.52,2.29 0.22,0.42 0.51,0.82 0.92,1.07 0.35,0.21 0.71,0.26 1.11,0.25 0.05,-0 0.1,-0 0.15,-0 0.48,0 0.96,-0.07 1.38,-0.32 0.37,-0.22 0.61,-0.57 0.8,-0.94 0.36,-0.71 0.49,-1.56 0.52,-2.35z"/>
  <path class="fil1" d="M214.89 16.3c47.61,0 87.69,32.18 99.69,75.98 -1.37,0.53 -2.74,1.13 -4.1,1.78 -11.29,-42.23 -49.81,-73.34 -95.6,-73.34 -53.7,0 -97.41,42.78 -98.91,96.12 -1.47,2.09 -2.93,4.18 -4.4,6.26 -0.04,-1.14 -0.06,-2.28 -0.06,-3.43 0,-57.09 46.28,-103.37 103.37,-103.37zm88.3 157.14c-18.15,29.75 -50.91,49.6 -88.3,49.6 -41.8,0 -77.8,-24.81 -94.09,-60.51 1.3,-0.74 2.6,-1.45 3.89,-2.11 1.77,3.92 3.8,7.7 6.05,11.33 0.94,3.55 3.03,6.67 6.22,8.91 18.11,23.11 46.28,37.96 77.92,37.96 34.28,0 64.48,-17.43 82.24,-43.91 2.02,-0.46 4.04,-0.89 6.07,-1.28zm-88.3 -168.73c53.47,0 98.42,36.51 111.27,85.97 -1.6,-0.33 -3.32,-0.37 -5.13,-0.14 -12.77,-46.63 -55.45,-80.9 -106.14,-80.9 -60.78,0 -110.04,49.27 -110.04,110.04 0,4.05 0.23,8.05 0.65,11.99 -1.03,1.43 -2.07,2.86 -3.11,4.28 -0.36,0.49 -0.73,0.99 -1.09,1.49 -0.9,-5.79 -1.37,-11.72 -1.37,-17.76 0,-63.49 51.47,-114.96 114.96,-114.96zm102.45 167.15c-19.02,37.26 -57.76,62.77 -102.45,62.77 -46.09,0 -85.83,-27.12 -104.16,-66.27 0.88,-0.5 1.76,-1 2.64,-1.5 0.54,-0.31 1.09,-0.63 1.64,-0.95 17.47,37.67 55.62,63.81 99.88,63.81 41.77,0 78.11,-23.28 96.75,-57.57 1.85,-0.19 3.79,-0.31 5.7,-0.28z"/>
  <g id="_1682588492256">
   <path class="fil2" d="M58.67 180.04c9.3,9.09 54.96,-20.68 64.83,-25.46 6.53,-3.16 22.18,-14.11 27.24,-0.52 -14.53,-6.1 -27.73,30.8 8.63,23.67 16.52,-3.24 18.66,-6.65 37.33,-3.39 25.34,4.42 32.57,11.33 60.69,4.7 32.36,-7.63 65.58,-21.24 77.38,-6.05 -4.73,-23.72 -68.11,-10.03 -74.21,-14.66 -13.04,-9.92 4.55,-21.98 12.27,-14.17 -13.52,-35.48 -67.2,48.82 -97.11,-2.59 -24.53,-42.15 22.06,-64.09 32.88,-51.21 -3.24,-16.34 -33.45,-27.24 -57.26,-8.42 -23.43,18.52 -63.81,101.81 -92.66,98.09z"/>
   <path class="fil3" d="M190.36 123.56c6.09,5.56 35.98,-12.64 42.44,-15.56 4.28,-1.93 14.52,-8.63 17.83,-0.32 -9.51,-3.73 -18.15,18.83 5.65,14.47 10.82,-1.98 12.22,-4.06 24.44,-2.07 16.59,2.7 21.32,6.93 39.73,2.87 21.18,-4.66 42.93,-12.98 50.65,-3.7 -3.1,-14.5 -44.59,-6.13 -48.58,-8.96 -8.54,-6.06 2.98,-13.44 8.03,-8.66 -8.85,-21.69 -43.99,29.84 -63.58,-1.58 -16.06,-25.77 14.44,-39.18 21.53,-31.3 -2.12,-9.99 -21.9,-16.65 -37.49,-5.15 -15.34,11.32 -41.77,62.24 -60.66,59.96z"/>
  </g>
  <path class="fil4" d="M29.52 303.63c-3.57,0 -6.86,-0.57 -9.89,-1.71 -3.03,-1.14 -5.65,-2.76 -7.86,-4.87 -2.21,-2.1 -3.94,-4.59 -5.19,-7.44 -1.25,-2.86 -1.87,-6 -1.87,-9.44 0,-3.44 0.62,-6.58 1.87,-9.44 1.25,-2.86 2.98,-5.34 5.19,-7.44 2.21,-2.11 4.83,-3.73 7.86,-4.87 3.03,-1.14 6.33,-1.71 9.89,-1.71 4.17,0 7.89,0.73 11.18,2.19 3.29,1.46 6.03,3.57 8.22,6.32l-8.12 7.35c-1.46,-1.72 -3.06,-3.03 -4.8,-3.93 -1.74,-0.9 -3.68,-1.35 -5.83,-1.35 -1.85,0 -3.54,0.3 -5.09,0.9 -1.55,0.6 -2.87,1.47 -3.96,2.61 -1.1,1.14 -1.95,2.5 -2.58,4.09 -0.62,1.59 -0.93,3.35 -0.93,5.28 0,1.93 0.31,3.69 0.93,5.28 0.62,1.59 1.48,2.95 2.58,4.09 1.1,1.14 2.42,2.01 3.96,2.61 1.55,0.6 3.24,0.9 5.09,0.9 2.15,0 4.09,-0.45 5.83,-1.35 1.74,-0.9 3.34,-2.21 4.8,-3.93l8.12 7.35c-2.19,2.71 -4.93,4.8 -8.22,6.28 -3.29,1.48 -7.01,2.22 -11.18,2.22zm40.92 -0.32c-3.87,-0.04 -7.27,-0.83 -10.21,-2.35 -2.94,-1.53 -5.26,-3.65 -6.96,-6.38 -1.7,-2.73 -2.55,-5.83 -2.55,-9.31 0,-3.57 0.85,-6.69 2.55,-9.38 1.7,-2.69 4.03,-4.8 6.99,-6.35 2.96,-1.55 6.34,-2.32 10.12,-2.32 3.87,0 7.29,0.77 10.28,2.32 2.99,1.55 5.32,3.67 6.99,6.38 1.68,2.71 2.51,5.82 2.51,9.34 0,3.48 -0.84,6.58 -2.51,9.31 -1.68,2.73 -4.01,4.85 -6.99,6.38 -2.99,1.53 -6.39,2.31 -10.21,2.35zm0 -9.73c1.42,0 2.67,-0.32 3.77,-0.97 1.1,-0.64 1.97,-1.6 2.61,-2.87 0.64,-1.27 0.99,-2.76 1.03,-4.48 -0.04,-1.8 -0.39,-3.32 -1.03,-4.54 -0.64,-1.22 -1.51,-2.16 -2.61,-2.8 -1.1,-0.64 -2.37,-0.97 -3.83,-0.97 -1.33,0 -2.55,0.32 -3.64,0.97 -1.1,0.64 -1.98,1.58 -2.64,2.8 -0.67,1.22 -1.02,2.74 -1.06,4.54 0.04,1.72 0.4,3.21 1.06,4.48 0.67,1.27 1.55,2.23 2.64,2.9 1.1,0.67 2.33,0.98 3.71,0.93zm38.09 9.73c-2.96,0 -5.85,-0.34 -8.67,-1.03 -2.81,-0.69 -5.08,-1.55 -6.8,-2.58l3.67 -8.38c1.63,0.99 3.54,1.77 5.74,2.35 2.19,0.58 4.34,0.87 6.44,0.87 2.06,0 3.49,-0.21 4.29,-0.64 0.79,-0.43 1.19,-1.01 1.19,-1.74 0,-0.69 -0.38,-1.19 -1.13,-1.51 -0.75,-0.32 -1.74,-0.57 -2.96,-0.74 -1.22,-0.17 -2.57,-0.37 -4.03,-0.58 -1.46,-0.21 -2.93,-0.5 -4.41,-0.87 -1.48,-0.37 -2.84,-0.92 -4.06,-1.68 -1.22,-0.75 -2.2,-1.77 -2.93,-3.06 -0.73,-1.29 -1.1,-2.92 -1.1,-4.9 0,-2.23 0.66,-4.22 1.97,-5.96 1.31,-1.74 3.23,-3.11 5.77,-4.12 2.53,-1.01 5.63,-1.51 9.28,-1.51 2.45,0 4.93,0.25 7.44,0.74 2.51,0.49 4.63,1.24 6.35,2.22l-3.67 8.31c-1.72,-0.99 -3.44,-1.66 -5.16,-2.03 -1.72,-0.37 -3.35,-0.55 -4.9,-0.55 -2.06,0 -3.51,0.24 -4.35,0.71 -0.84,0.47 -1.26,1.05 -1.26,1.74 0,0.69 0.37,1.21 1.1,1.58 0.73,0.37 1.71,0.64 2.93,0.84 1.22,0.19 2.57,0.39 4.03,0.58 1.46,0.19 2.93,0.48 4.41,0.87 1.48,0.39 2.84,0.96 4.06,1.71 1.22,0.75 2.2,1.76 2.93,3.03 0.73,1.27 1.1,2.89 1.1,4.87 0,2.15 -0.66,4.08 -1.97,5.8 -1.31,1.72 -3.24,3.09 -5.8,4.12 -2.56,1.03 -5.72,1.55 -9.51,1.55zm38.15 0c-4.47,0 -7.95,-1.11 -10.44,-3.32 -2.49,-2.21 -3.74,-5.55 -3.74,-10.02l0 -29.97 12.24 0 0 29.84c0,1.25 0.34,2.22 1.03,2.93 0.69,0.71 1.57,1.06 2.64,1.06 1.46,0 2.71,-0.37 3.74,-1.1l3.03 8.57c-1.03,0.69 -2.3,1.19 -3.8,1.51 -1.5,0.32 -3.07,0.48 -4.7,0.48zm-19.27 -25.07l0 -9.15 25.33 0 0 9.15 -25.33 0zm53.81 24.49l0 -6.51 -0.84 -1.61 0 -11.99c0,-1.93 -0.59,-3.43 -1.77,-4.48 -1.18,-1.05 -3.06,-1.58 -5.64,-1.58 -1.68,0 -3.37,0.27 -5.09,0.81 -1.72,0.54 -3.18,1.28 -4.38,2.22l-4.12 -8.31c1.98,-1.29 4.35,-2.29 7.12,-3 2.77,-0.71 5.53,-1.06 8.28,-1.06 5.67,0 10.06,1.3 13.18,3.9 3.11,2.6 4.67,6.67 4.67,12.21l0 19.4 -11.41 0zm-10.31 0.58c-2.79,0 -5.16,-0.47 -7.09,-1.42 -1.93,-0.95 -3.4,-2.23 -4.41,-3.87 -1.01,-1.63 -1.51,-3.46 -1.51,-5.48 0,-2.15 0.55,-4.01 1.64,-5.57 1.1,-1.57 2.78,-2.77 5.06,-3.61 2.28,-0.84 5.22,-1.26 8.83,-1.26l8.25 0 0 6.38 -6.57 0c-1.98,0 -3.36,0.32 -4.16,0.97 -0.79,0.64 -1.19,1.5 -1.19,2.58 0,1.07 0.41,1.93 1.22,2.58 0.82,0.64 1.93,0.97 3.35,0.97 1.33,0 2.55,-0.33 3.64,-1 1.1,-0.67 1.9,-1.69 2.42,-3.06l1.68 4.51c-0.64,2.41 -1.9,4.22 -3.77,5.45 -1.87,1.22 -4.33,1.84 -7.38,1.84zm71.27 0.32c-3.57,0 -6.86,-0.57 -9.89,-1.71 -3.03,-1.14 -5.65,-2.76 -7.86,-4.87 -2.21,-2.1 -3.94,-4.59 -5.19,-7.44 -1.25,-2.86 -1.87,-6 -1.87,-9.44 0,-3.44 0.62,-6.58 1.87,-9.44 1.25,-2.86 2.98,-5.34 5.19,-7.44 2.21,-2.11 4.83,-3.73 7.86,-4.87 3.03,-1.14 6.33,-1.71 9.89,-1.71 4.17,0 7.89,0.73 11.18,2.19 3.29,1.46 6.03,3.57 8.22,6.32l-8.12 7.35c-1.46,-1.72 -3.06,-3.03 -4.8,-3.93 -1.74,-0.9 -3.68,-1.35 -5.83,-1.35 -1.85,0 -3.54,0.3 -5.09,0.9 -1.55,0.6 -2.87,1.47 -3.96,2.61 -1.1,1.14 -1.95,2.5 -2.58,4.09 -0.62,1.59 -0.93,3.35 -0.93,5.28 0,1.93 0.31,3.69 0.93,5.28 0.62,1.59 1.48,2.95 2.58,4.09 1.1,1.14 2.42,2.01 3.96,2.61 1.55,0.6 3.24,0.9 5.09,0.9 2.15,0 4.09,-0.45 5.83,-1.35 1.74,-0.9 3.34,-2.21 4.8,-3.93l8.12 7.35c-2.19,2.71 -4.93,4.8 -8.22,6.28 -3.29,1.48 -7.01,2.22 -11.18,2.22zm24.55 -0.9l-0.06 -47.82 12.24 0 0 47.82 -12.18 0zm38.41 0.58c-4.12,0 -7.72,-0.78 -10.79,-2.35 -3.07,-1.57 -5.46,-3.72 -7.15,-6.44 -1.7,-2.73 -2.55,-5.83 -2.55,-9.31 0,-3.48 0.83,-6.58 2.48,-9.31 1.65,-2.73 3.94,-4.85 6.86,-6.38 2.92,-1.53 6.21,-2.29 9.86,-2.29 3.44,0 6.57,0.7 9.41,2.09 2.84,1.4 5.09,3.45 6.77,6.15 1.68,2.71 2.51,5.99 2.51,9.86 0,0.43 -0.02,0.92 -0.06,1.48 -0.04,0.56 -0.09,1.07 -0.13,1.55l-27.65 0 0 -6.44 21.14 0 -4.64 1.8c0.04,-1.59 -0.25,-2.96 -0.87,-4.12 -0.62,-1.16 -1.48,-2.06 -2.58,-2.71 -1.1,-0.64 -2.37,-0.97 -3.83,-0.97 -1.46,0 -2.74,0.32 -3.83,0.97 -1.1,0.64 -1.94,1.56 -2.55,2.74 -0.6,1.18 -0.9,2.57 -0.9,4.16l0 1.87c0,1.72 0.35,3.2 1.06,4.45 0.71,1.25 1.73,2.2 3.06,2.87 1.33,0.67 2.92,1 4.77,1 1.72,0 3.19,-0.25 4.41,-0.74 1.22,-0.49 2.44,-1.26 3.64,-2.29l6.44 6.7c-1.68,1.85 -3.74,3.25 -6.19,4.22 -2.45,0.97 -5.35,1.45 -8.7,1.45zm43.43 -0.58l0 -6.51 -0.84 -1.61 0 -11.99c0,-1.93 -0.59,-3.43 -1.77,-4.48 -1.18,-1.05 -3.06,-1.58 -5.64,-1.58 -1.68,0 -3.37,0.27 -5.09,0.81 -1.72,0.54 -3.18,1.28 -4.38,2.22l-4.12 -8.31c1.98,-1.29 4.35,-2.29 7.12,-3 2.77,-0.71 5.53,-1.06 8.28,-1.06 5.67,0 10.06,1.3 13.18,3.9 3.11,2.6 4.67,6.67 4.67,12.21l0 19.4 -11.41 0zm-10.31 0.58c-2.79,0 -5.16,-0.47 -7.09,-1.42 -1.93,-0.95 -3.4,-2.23 -4.41,-3.87 -1.01,-1.63 -1.51,-3.46 -1.51,-5.48 0,-2.15 0.55,-4.01 1.64,-5.57 1.1,-1.57 2.78,-2.77 5.06,-3.61 2.28,-0.84 5.22,-1.26 8.83,-1.26l8.25 0 0 6.38 -6.57 0c-1.98,0 -3.36,0.32 -4.16,0.97 -0.79,0.64 -1.19,1.5 -1.19,2.58 0,1.07 0.41,1.93 1.22,2.58 0.82,0.64 1.93,0.97 3.35,0.97 1.33,0 2.55,-0.33 3.64,-1 1.1,-0.67 1.9,-1.69 2.42,-3.06l1.68 4.51c-0.64,2.41 -1.9,4.22 -3.77,5.45 -1.87,1.22 -4.33,1.84 -7.38,1.84zm52.2 -36.09c2.71,0 5.16,0.55 7.35,1.64 2.19,1.1 3.92,2.78 5.19,5.06 1.27,2.28 1.9,5.22 1.9,8.83l0 19.98 -12.24 0 0 -17.98c0,-2.49 -0.5,-4.31 -1.51,-5.45 -1.01,-1.14 -2.42,-1.71 -4.22,-1.71 -1.29,0 -2.47,0.29 -3.54,0.87 -1.07,0.58 -1.91,1.47 -2.51,2.67 -0.6,1.2 -0.9,2.77 -0.9,4.7l0 16.88 -12.24 0 0 -34.93 11.66 0 0 9.92 -2.26 -2.9c1.33,-2.53 3.16,-4.44 5.48,-5.7 2.32,-1.27 4.94,-1.9 7.86,-1.9zm27.26 36.09c-2.06,0 -3.8,-0.69 -5.22,-2.06 -1.42,-1.37 -2.13,-3.11 -2.13,-5.22 0,-2.19 0.71,-3.94 2.13,-5.25 1.42,-1.31 3.16,-1.97 5.22,-1.97 2.06,0 3.8,0.66 5.22,1.97 1.42,1.31 2.13,3.06 2.13,5.25 0,2.1 -0.71,3.85 -2.13,5.22 -1.42,1.37 -3.16,2.06 -5.22,2.06z"/>
 </g>
</svg>
